<?xml version="1.0" encoding="utf-8"?>
<!-- Generator: Adobe Illustrator 27.5.0, SVG Export Plug-In . SVG Version: 6.00 Build 0)  -->
<svg version="1.1" xmlns="http://www.w3.org/2000/svg" xmlns:xlink="http://www.w3.org/1999/xlink" x="0px" y="0px"
	 viewBox="0 0 500 500" style="enable-background:new 0 0 500 500;" xml:space="preserve">
<g id="Background_Simple">
	<g>
		<path style="fill:#92E3A9;" d="M389.423,448.122c5.366-3.21,10.574-6.759,15.6-10.689c40.447-31.63,57.557-72.984,69.025-120.232
			c11.844-48.797,15.571-105.93-5.842-152.777c-5.041-11.027-11.792-21.482-20.938-29.802
			c-34.449-31.339-92.174-42.084-137.796-77.004C263.852,22.698,207.058,5.685,153.057,37.024
			c-22.853,13.263-41.707,30.173-58.248,50.182c-20.366,24.637-47.836,45.887-63.736,74.358
			C14.362,191.489,8.54,231.342,16.192,264.457c8.731,37.781,43.446,59.942,67.122,88.783
			c18.665,22.737,30.881,49.935,50.133,72.215c29.494,34.134,76.901,60.013,123.889,55.687
			C302.916,476.945,350.334,471.51,389.423,448.122z"/>
		<path style="opacity:0.7;fill:#FFFFFF;" d="M389.423,448.122c5.366-3.21,10.574-6.759,15.6-10.689
			c40.447-31.63,57.557-72.984,69.025-120.232c11.844-48.797,15.571-105.93-5.842-152.777
			c-5.041-11.027-11.792-21.482-20.938-29.802c-34.449-31.339-92.174-42.084-137.796-77.004
			C263.852,22.698,207.058,5.685,153.057,37.024c-22.853,13.263-41.707,30.173-58.248,50.182
			c-20.366,24.637-47.836,45.887-63.736,74.358C14.362,191.489,8.54,231.342,16.192,264.457
			c8.731,37.781,43.446,59.942,67.122,88.783c18.665,22.737,30.881,49.935,50.133,72.215
			c29.494,34.134,76.901,60.013,123.889,55.687C302.916,476.945,350.334,471.51,389.423,448.122z"/>
	</g>
</g>
<g id="Clouds">
	<path style="fill:#E5E5E5;stroke:#263238;stroke-linecap:round;stroke-linejoin:round;stroke-miterlimit:10;" d="M126.769,63.463
		c0,0-5.833-11.555-16.852-11.861c-15.092-0.419-18.521,12.188-19.831,13.498c-1.31,1.31-6.55-2.293-10.481-1.31
		c-3.93,0.983-5.24,4.913-6.223,5.568c-0.982,0.655-4.585-2.293-7.205-0.982c-2.62,1.31-4.913,4.258-4.913,4.258
		s-3.275,0.327-9.826,1.965h97.929c0,0-2.62-9.826-8.516-10.481c-5.895-0.655-6.878,1.31-9.498,1.638
		C128.734,66.083,126.769,63.463,126.769,63.463z"/>
	<path style="fill:#E5E5E5;stroke:#263238;stroke-linecap:round;stroke-linejoin:round;stroke-miterlimit:10;" d="M418.684,88.542
		c0,0-9.042-17.913-26.124-18.387c-23.396-0.65-28.711,18.895-30.742,20.926c-2.031,2.031-10.155-3.554-16.248-2.031
		s-8.124,7.616-9.647,8.632c-1.523,1.016-7.108-3.554-11.17-1.523c-4.062,2.031-7.616,6.601-7.616,6.601s-5.077,0.508-15.232,3.047
		h151.813c0,0-4.062-15.232-13.201-16.248c-9.139-1.015-10.663,2.031-14.724,2.539S418.684,88.542,418.684,88.542z"/>
	<g>
		<path style="fill:#FFFFFF;" d="M475.735,142.657c-6.631-2.92-14.689-2.338-20.834,1.497c-0.028,0.018-0.057,0.035-0.085,0.053
			c-2.862-13.318-14.012-24.478-27.327-27.351c-13.316-2.873-28.076,2.696-36.174,13.649c-1.561,2.112-3.206,4.563-5.109,6.417
			c-4.685-9.958-14.056-17.737-24.852-20.066c-13.316-2.873-28.076,2.696-36.174,13.649c-3.139,4.246-6.611,9.866-11.854,9.237
			c-2.322-0.279-4.267-1.816-6.396-2.785c-7.799-3.554-17.038,0.917-23.118,6.958c-2.238,2.223-4.367,4.745-7.303,5.899
			c-3.45,1.356-7.313,0.563-11.019,0.482c-5.939-0.129-13.553,1.846-18.114,6.155h66.135h108.4h66.135
			C486.12,150.408,481.551,145.218,475.735,142.657z"/>
		<path style="fill:#B2B2B2;" d="M306.219,143.113c9.797,0,12.353,7.667,20.446,7.241c8.093-0.426,8.519-17.464,23.002-18.742
			c14.482-1.278,25.131,11.501,25.131,11.501s-2.982-0.426-7.667,2.556c-4.686,2.982-6.815,5.963-6.815,5.963
			s25.557-8.945,36.632-5.963c11.075,2.982,17.89,6.389,17.89,6.389s-0.426-17.038,13.205-17.038
			c13.63,0,23.428,14.908,23.428,14.908s6.389-3.408,10.223-0.852c3.834,2.556,3.834,2.556,3.834,2.556s10.223-1.278,13.631,1.704
			c1.19,1.042,2.168,2.133,2.943,3.115h5.947c-1.927-6.043-6.496-11.233-12.312-13.794c-6.631-2.92-14.689-2.338-20.834,1.497
			c-0.028,0.018-0.056,0.035-0.085,0.053c-2.862-13.318-14.012-24.478-27.327-27.351c-13.315-2.873-28.076,2.696-36.174,13.649
			c-1.561,2.112-3.206,4.563-5.109,6.417c-4.685-9.958-14.056-17.737-24.852-20.066c-13.316-2.873-28.076,2.696-36.174,13.649
			c-3.139,4.246-6.611,9.866-11.854,9.237c-2.322-0.279-4.267-1.816-6.396-2.785c-7.799-3.554-17.038,0.917-23.118,6.958
			c-2.238,2.223-4.367,4.745-7.303,5.899c-3.45,1.356-7.313,0.563-11.019,0.482c-5.939-0.129-13.553,1.846-18.114,6.155
			c0,0,41.804-0.133,45.638-3.115C296.848,150.354,296.422,143.113,306.219,143.113z"/>
		<path style="fill:none;stroke:#263238;stroke-linecap:round;stroke-linejoin:round;stroke-miterlimit:10;" d="M475.735,142.657
			c-6.631-2.92-14.689-2.338-20.834,1.497c-0.028,0.018-0.057,0.035-0.085,0.053c-2.862-13.318-14.012-24.478-27.327-27.351
			c-13.316-2.873-28.076,2.696-36.174,13.649c-1.561,2.112-3.206,4.563-5.109,6.417c-4.685-9.958-14.056-17.737-24.852-20.066
			c-13.316-2.873-28.076,2.696-36.174,13.649c-3.139,4.246-6.611,9.866-11.854,9.237c-2.322-0.279-4.267-1.816-6.396-2.785
			c-7.799-3.554-17.038,0.917-23.118,6.958c-2.238,2.223-4.367,4.745-7.303,5.899c-3.45,1.356-7.313,0.563-11.019,0.482
			c-5.939-0.129-13.553,1.846-18.114,6.155h66.135h108.4h66.135C486.12,150.408,481.551,145.218,475.735,142.657z"/>
	</g>
	<g>
		<path style="fill:#FFFFFF;" d="M185.438,236.511c0,0-10.372-20.547-29.966-21.091c-26.837-0.745-32.933,21.673-35.263,24.003
			c-2.33,2.33-11.648-4.077-18.637-2.329c-6.989,1.747-9.318,8.736-11.066,9.901c-1.747,1.165-8.154-4.077-12.813-1.747
			c-4.659,2.33-8.736,7.571-8.736,7.571s-5.824,0.582-17.472,3.494h174.138c0,0-4.659-17.472-15.142-18.637
			c-10.483-1.165-12.23,2.33-16.89,2.912C188.932,241.17,185.438,236.511,185.438,236.511z"/>
		<path style="fill:#CCCCCC;" d="M90.898,249.995c3.78,1.134,8.317,3.024,16.256,2.268c7.939-0.756,1.89-6.049,6.427-7.939
			c4.536-1.89,17.768,2.268,17.768,2.268s3.024-13.988,14.366-16.634c11.341-2.646,19.658,6.427,19.658,6.427
			s-9.073,2.268-13.609,5.671c-4.536,3.402-5.671,6.049-5.671,6.049s12.853-6.805,21.548-6.427
			c8.695,0.378,13.988,7.183,13.988,7.183s8.317-5.671,14.366-4.158c6.049,1.512,11.719,6.805,11.719,6.805
			s-0.378-5.671-2.646-7.939c0,0,6.427,1.134,9.451,4.536c0,0-0.507-5.03-3.858-10.4c-0.06-0.008-0.118-0.022-0.179-0.029
			c-10.483-1.165-12.23,2.33-16.889,2.912c-4.659,0.582-8.154-4.077-8.154-4.077s-10.372-20.547-29.966-21.091
			c-26.837-0.745-32.934,21.673-35.263,24.003c-2.33,2.329-11.648-4.077-18.637-2.329c-6.989,1.747-9.318,8.736-11.066,9.901
			c-1.747,1.165-8.154-4.077-12.813-1.747c-4.659,2.33-8.736,7.571-8.736,7.571s-5.824,0.582-17.472,3.494
			c0,0,28.449-0.647,30.718-2.915C84.471,251.129,87.118,248.861,90.898,249.995z"/>
		<path style="fill:none;stroke:#263238;stroke-linecap:round;stroke-linejoin:round;stroke-miterlimit:10;" d="M185.438,236.511
			c0,0-10.372-20.547-29.966-21.091c-26.837-0.745-32.933,21.673-35.263,24.003c-2.33,2.33-11.648-4.077-18.637-2.329
			c-6.989,1.747-9.318,8.736-11.066,9.901c-1.747,1.165-8.154-4.077-12.813-1.747c-4.659,2.33-8.736,7.571-8.736,7.571
			s-5.824,0.582-17.472,3.494h174.138c0,0-4.659-17.472-15.142-18.637c-10.483-1.165-12.23,2.33-16.89,2.912
			C188.932,241.17,185.438,236.511,185.438,236.511z"/>
	</g>
	<g>
		<path style="fill:#FFFFFF;" d="M454.983,234.877c-0.731-1.598-1.194-3.791-2.449-4.759c-1.02-0.787-2.085-1.098-3.18-1.196
			c-2.608-0.232-5.384,0.752-8.12-0.571c-1.93-0.933-3.324-2.663-4.877-4.14c-5.605-5.329-13.134-6.857-20.58-5.763
			c-5.477,0.805-14.067,5.232-17.504-1.575c-0.001-0.002-9.881-19.57-28.54-20.09c-25.56-0.71-31.37,20.65-33.59,22.87
			c-2.22,2.22-11.09-3.89-17.75-2.22c-6.66,1.66-8.87,8.32-10.54,9.43c-1.66,1.11-7.77-3.88-12.2-1.67
			c-4.44,2.22-8.32,7.22-8.32,7.22s-4.371,0.436-13.094,2.464H454.983z"/>
		<path style="fill:#CCCCCC;" d="M452.534,230.118c-1.02-0.787-2.085-1.098-3.18-1.196c-2.608-0.232-5.384,0.752-8.12-0.57
			c-1.93-0.933-3.324-2.663-4.877-4.14c-5.605-5.329-13.134-6.857-20.58-5.763c-5.477,0.805-14.067,5.232-17.504-1.575
			c-0.001-0.002-6.811-13.468-19.789-18.351c-3.982,0.152-19.216,0.077-25.914,7.648c-7.053,7.973-5.826,14.719-8.893,18.092
			c-3.066,3.373-11.346-6.133-19.319-6.44c-7.973-0.307-12.266,9.506-12.266,9.506s16.559-7.666,25.759,3.68
			c0,0,9.506-12.879,26.372-4.906c0,0-2.147,0-6.133,2.147c-3.987,2.146-6.44,5.826-6.44,5.826s16.559-12.266,26.372-6.746
			c5.464,3.074,8.261,5.764,9.672,7.547h67.288C454.252,233.279,453.789,231.086,452.534,230.118z"/>
		<path style="fill:none;stroke:#263238;stroke-linecap:round;stroke-linejoin:round;stroke-miterlimit:10;" d="M454.983,234.877
			c-0.731-1.598-1.194-3.791-2.449-4.759c-1.02-0.787-2.085-1.098-3.18-1.196c-2.608-0.232-5.384,0.752-8.12-0.571
			c-1.93-0.933-3.324-2.663-4.877-4.14c-5.605-5.329-13.134-6.857-20.58-5.763c-5.477,0.805-14.067,5.232-17.504-1.575
			c-0.001-0.002-9.881-19.57-28.54-20.09c-25.56-0.71-31.37,20.65-33.59,22.87c-2.22,2.22-11.09-3.89-17.75-2.22
			c-6.66,1.66-8.87,8.32-10.54,9.43c-1.66,1.11-7.77-3.88-12.2-1.67c-4.44,2.22-8.32,7.22-8.32,7.22s-4.371,0.436-13.094,2.464
			H454.983z"/>
	</g>
	<g>
		<g>
			<path style="fill:#FFFFFF;stroke:#263238;stroke-linecap:round;stroke-linejoin:round;stroke-miterlimit:10;" d="M256.707,100.83
				c-14.786,0.62-18.258,13.283-19.638,14.662c-1.426,1.426-7.13-2.495-11.392-1.426c-4.278,1.069-5.704,5.347-6.773,6.06
				c-1.069,0.713-4.975-2.495-7.827-1.069c-2.852,1.426-5.347,4.634-5.347,4.634s-3.565,0.341-10.679,2.123H15.149
				c17.204-4.293,25.806-5.146,25.806-5.146s6.014-7.75,12.895-11.19c6.866-3.425,16.336,4.309,18.909,2.588
				c2.588-1.72,6.014-12.043,16.336-14.616c10.323-2.588,24.07,6.882,27.511,3.441c3.441-3.441,12.446-36.548,52.062-35.447
				c28.922,0.806,44.235,31.138,44.235,31.138s5.161,6.882,12.043,6.029c6.882-0.868,9.454-6.029,24.923-4.309
				C252.367,98.582,254.645,99.497,256.707,100.83z"/>
			<path style="fill:#FFFFFF;stroke:#263238;stroke-linecap:round;stroke-linejoin:round;stroke-miterlimit:10;" d="
				M301.515,125.815H195.05c7.114-1.782,10.679-2.123,10.679-2.123s2.495-3.208,5.347-4.634c2.852-1.426,6.758,1.782,7.827,1.069
				c1.07-0.713,2.495-4.991,6.773-6.06c4.262-1.069,9.966,2.852,11.392,1.426c1.38-1.379,4.851-14.042,19.638-14.662
				c0.62-0.031,1.255-0.031,1.922-0.016c11.981,0.341,18.32,12.895,18.32,12.895s2.139,2.852,4.991,2.495s3.906-2.495,10.323-1.782
				C298.679,115.136,301.515,125.815,301.515,125.815z"/>
			<path style="fill:#CCCCCC;" d="M292.262,114.423c-6.417-0.713-7.471,1.426-10.323,1.782c-2.852,0.356-4.991-2.495-4.991-2.495
				s-6.339-12.555-18.32-12.896c-0.666-0.016-1.302-0.016-1.922,0.016c-14.786,0.62-18.258,13.283-19.638,14.662
				c-1.426,1.426-7.13-2.495-11.392-1.426c-4.278,1.069-5.704,5.347-6.773,6.06c-1.069,0.713-4.975-2.495-7.827-1.069
				c-2.852,1.426-5.347,4.634-5.347,4.634s-3.565,0.341-10.679,2.123h21.873c4.043-1.535,10.833-4.073,14.344-5.154
				c5.2-1.6,12.4-0.4,12.4-0.4s-0.4-10,11.2-12c11.6-2,18,11.2,18,11.2s7.6-5.2,14.4,0c3.569,2.729,5.476,4.9,6.491,6.354h7.757
				C301.515,125.815,298.679,115.136,292.262,114.423z"/>
			<path style="fill:none;stroke:#263238;stroke-linecap:round;stroke-linejoin:round;stroke-miterlimit:10;" d="M301.515,125.815
				H195.05c7.114-1.782,10.679-2.123,10.679-2.123s2.495-3.208,5.347-4.634c2.852-1.426,6.758,1.782,7.827,1.069
				c1.07-0.713,2.495-4.991,6.773-6.06c4.262-1.069,9.966,2.852,11.392,1.426c1.38-1.379,4.851-14.042,19.638-14.662
				c0.62-0.031,1.255-0.031,1.922-0.016c11.981,0.341,18.32,12.895,18.32,12.895s2.139,2.852,4.991,2.495s3.906-2.495,10.323-1.782
				C298.679,115.136,301.515,125.815,301.515,125.815z"/>
		</g>
		<g>
			<path style="fill:#CCCCCC;" d="M124.413,115.227c0.031,0.148,0.053,0.234,0.053,0.234S124.45,115.376,124.413,115.227z"/>
			<path style="fill:#B2B2B2;" d="M87.666,108.661c9.2,1.6,12.8,6.8,12.8,6.8s-0.4-8,10.8-9.2
				c10.206-1.094,12.772,7.442,13.147,8.966c-0.355-1.68-2.047-12.316,10.453-18.566c13.6-6.8,24.4,0.8,24.4,0.8s2-21.2,20-21.2
				s27.2,20,26,28c-1.2,8-1.6,10.8-1.6,10.8s9.654-4.449,17.084,2.611c1.045-1.417,2.542-3.009,4.926-3.605
				c4.262-1.069,9.966,2.852,11.392,1.426c1.38-1.379,4.851-14.042,19.638-14.662c-2.061-1.333-4.34-2.247-6.835-2.526
				c-15.468-1.72-18.041,3.441-24.923,4.309c-6.882,0.853-12.043-6.029-12.043-6.029s-15.313-30.332-44.235-31.138
				c-39.616-1.1-48.621,32.006-52.062,35.447c-3.441,3.441-17.189-6.029-27.511-3.441c-10.323,2.573-13.748,12.895-16.336,14.616
				c-2.573,1.72-12.043-6.014-18.909-2.588c-6.882,3.441-12.895,11.19-12.895,11.19s-8.602,0.853-25.806,5.146
				c0,0,22.916-1.154,41.716-4.754C75.666,117.461,78.466,107.061,87.666,108.661z"/>
			<path style="fill:none;stroke:#263238;stroke-linecap:round;stroke-linejoin:round;stroke-miterlimit:10;" d="M256.707,100.83
				c-14.786,0.62-18.258,13.283-19.638,14.662c-1.426,1.426-7.13-2.495-11.392-1.426c-4.278,1.069-5.704,5.347-6.773,6.06
				c-1.069,0.713-4.975-2.495-7.827-1.069c-2.852,1.426-5.347,4.634-5.347,4.634s-3.565,0.341-10.679,2.123H15.149
				c17.204-4.293,25.806-5.146,25.806-5.146s6.014-7.75,12.895-11.19c6.866-3.425,16.336,4.309,18.909,2.588
				c2.588-1.72,6.014-12.043,16.336-14.616c10.323-2.588,24.07,6.882,27.511,3.441c3.441-3.441,12.446-36.548,52.062-35.447
				c28.922,0.806,44.235,31.138,44.235,31.138s5.161,6.882,12.043,6.029c6.882-0.868,9.454-6.029,24.923-4.309
				C252.367,98.582,254.645,99.497,256.707,100.83z"/>
		</g>
	</g>
</g>
<g id="Sun_00000047743579056477972990000002895822882952730548_">
	<g>
		<g>
			<path style="opacity:0.26;fill:#FFFFFF;" d="M367.322,339.605c2.776-10.235,4.266-20.999,4.266-32.113
				c0-67.591-54.793-122.385-122.385-122.385c-67.591,0-122.385,54.794-122.385,122.385c0,11.114,1.49,21.878,4.266,32.113H367.322z
				"/>
			<path style="opacity:0.61;fill:#FFFFFF;" d="M317.923,339.605c4.566-9.754,7.131-20.631,7.131-32.113
				c0-41.891-33.959-75.85-75.85-75.85s-75.85,33.959-75.85,75.85c0,11.481,2.565,22.359,7.131,32.113H317.923z"/>
			<path style="opacity:0.91;fill:#FFFFFF;" d="M222.528,339.605h53.351c9.209-7.658,15.074-19.199,15.074-32.113
				c0-23.057-18.692-41.749-41.749-41.749s-41.749,18.692-41.749,41.749C207.454,320.406,213.319,331.947,222.528,339.605z"/>
			
				<ellipse transform="matrix(0.9882 -0.153 0.153 0.9882 -44.1091 41.745)" style="fill:#FFFFFF;stroke:#263238;stroke-linecap:round;stroke-linejoin:round;stroke-miterlimit:10;" cx="249.203" cy="307.492" rx="28.897" ry="28.897"/>
		</g>
		<g>
			
				<line style="fill:#FFFFFF;stroke:#263238;stroke-linecap:round;stroke-linejoin:round;stroke-miterlimit:10;" x1="185.901" y1="239.774" x2="167.906" y2="220.523"/>
			
				<line style="fill:#FFFFFF;stroke:#263238;stroke-linecap:round;stroke-linejoin:round;stroke-miterlimit:10;" x1="214.49" y1="270.358" x2="190.098" y2="244.263"/>
			
				<line style="fill:#FFFFFF;stroke:#263238;stroke-linecap:round;stroke-linejoin:round;stroke-miterlimit:10;" x1="251.094" y1="250.143" x2="251.094" y2="219.263"/>
			
				<line style="fill:#FFFFFF;stroke:#263238;stroke-linecap:round;stroke-linejoin:round;stroke-miterlimit:10;" x1="251.094" y1="259.596" x2="251.094" y2="254.555"/>
			
				<line style="fill:#FFFFFF;stroke:#263238;stroke-linecap:round;stroke-linejoin:round;stroke-miterlimit:10;" x1="289.702" y1="282.9" x2="314.115" y2="265.268"/>
			
				<line style="fill:#FFFFFF;stroke:#263238;stroke-linecap:round;stroke-linejoin:round;stroke-miterlimit:10;" x1="274.729" y1="261.954" x2="298.99" y2="215.481"/>
			
				<line style="fill:#FFFFFF;stroke:#263238;stroke-linecap:round;stroke-linejoin:round;stroke-miterlimit:10;" x1="195.006" y1="282.06" x2="173.578" y2="269.049"/>
			
				<line style="fill:#FFFFFF;stroke:#263238;stroke-linecap:round;stroke-linejoin:round;stroke-miterlimit:10;" x1="204.988" y1="288.12" x2="200.367" y2="285.315"/>
			
				<line style="fill:#FFFFFF;stroke:#263238;stroke-linecap:round;stroke-linejoin:round;stroke-miterlimit:10;" x1="180.15" y1="157.383" x2="159.713" y2="117.798"/>
			
				<line style="fill:#FFFFFF;stroke:#263238;stroke-linecap:round;stroke-linejoin:round;stroke-miterlimit:10;" x1="221.387" y1="237.258" x2="185.445" y2="167.64"/>
			
				<line style="fill:#FFFFFF;stroke:#263238;stroke-linecap:round;stroke-linejoin:round;stroke-miterlimit:10;" x1="229.666" y1="253.294" x2="224.371" y2="243.037"/>
			
				<line style="fill:#FFFFFF;stroke:#263238;stroke-linecap:round;stroke-linejoin:round;stroke-miterlimit:10;" x1="317.454" y1="232.727" x2="327.349" y2="221.783"/>
			
				<line style="fill:#FFFFFF;stroke:#263238;stroke-linecap:round;stroke-linejoin:round;stroke-miterlimit:10;" x1="290.214" y1="262.85" x2="314.469" y2="236.028"/>
			
				<line style="fill:#FFFFFF;stroke:#263238;stroke-linecap:round;stroke-linejoin:round;stroke-miterlimit:10;" x1="282.767" y1="271.087" x2="286.602" y2="266.845"/>
			
				<line style="fill:#FFFFFF;stroke:#263238;stroke-linecap:round;stroke-linejoin:round;stroke-miterlimit:10;" x1="276.434" y1="171.293" x2="278.193" y2="159.392"/>
			
				<line style="fill:#FFFFFF;stroke:#263238;stroke-linecap:round;stroke-linejoin:round;stroke-miterlimit:10;" x1="270.073" y1="214.325" x2="275.586" y2="177.026"/>
			
				<line style="fill:#FFFFFF;stroke:#263238;stroke-linecap:round;stroke-linejoin:round;stroke-miterlimit:10;" x1="267.479" y1="231.867" x2="269.174" y2="220.401"/>
		</g>
	</g>
</g>
<g id="Mountains">
	<path style="opacity:0.18;" d="M268.195,347.144c-87.03,0-164.654-15.152-215.341-38.829l-29.148-1.673
		c0,0-14.186,13.743-6.541,16.928c7.646,3.186,74.544,12.105,82.19,15.291c7.646,3.186,8.92,7.646,23.574,12.105
		c14.654,4.46,63.713,2.548,68.173,3.186c4.46,0.637,45.236,8.283,55.43,8.92c10.194,0.637,35.042,19.751,51.608,22.299
		c16.565,2.548,20.388-0.637,36.316-5.734c15.928-5.097,52.245-17.202,60.527-19.114c8.283-1.911,47.971-29.823,47.971-29.823
		l-20.782-1.193C378.163,340.644,325.195,347.144,268.195,347.144z"/>
	<g>
		<path style="fill:#92E3A9;" d="M23.707,306.641c0,0,83.935-51.091,95.491-52.915c11.556-1.825,56.565,48.658,56.565,48.658
			s11.556-1.217,13.989,0.608c2.433,1.825,31.019,20.071,32.844,21.288c1.825,1.216,9.123,6.69,9.123,6.69s18.855-1.216,20.68-1.216
			c1.825,0,11.556,3.041,11.556,3.041s66.296-51.091,69.946-52.307c3.649-1.217,27.37,2.433,27.37,2.433s47.441-48.05,55.348-47.441
			c7.907,0.608,67.096,57.905,67.096,57.905l-14.544,14.352L442.954,330.7l-11.865,9.951l-13.474,3.369
			c-2.243,0.561-4.507,1.029-6.788,1.405l-12.843,2.115c0,0-12.056,2.488-50.862,5.332c-24.635,1.805-83.599,1.181-83.599,1.181
			l-42.365-3.168c0,0-32.467-1.98-75.228-10.294C104.038,332.446,48.801,320.467,23.707,306.641z"/>
		<g>
			<path style="fill:#FFFFFF;" d="M175.762,302.384l13.989,0.608C187.319,301.167,175.762,302.384,175.762,302.384z"/>
			<path style="fill:#FFFFFF;" d="M361.27,282.921c0,0,58.722-46.257,55.348-47.441C408.712,234.871,361.27,282.921,361.27,282.921z
				"/>
			<path style="fill:#FFFFFF;" d="M146.368,287.962c2.921,5.111,11.683,15.699,14.238,16.064c2.556,0.365,15.157-1.642,15.157-1.642
				s-45.008-50.483-56.565-48.658l40.678,44.093C159.876,297.819,143.447,282.851,146.368,287.962z"/>
			<path style="fill:#FFFFFF;" d="M205.146,318.994c-0.73,1.095-9.127-6.206-10.222-4.016c-1.095,2.191,22.635,17.889,24.826,19.35
				s15.334-0.73,18.254,0c2.921,0.73,12.413,6.572,17.889,7.667c5.476,1.095,10.953-0.365,10.953-0.365s-7.302-2.921-5.111-3.651
				c2.19-0.73,12.048-2.556,12.413-4.016c0.365-1.46,59.753-53.475,59.753-53.475c-3.649,1.216-69.946,52.307-69.946,52.307
				s-9.732-3.041-11.556-3.041c-1.825,0-20.68,1.216-20.68,1.216s-7.299-5.474-9.123-6.69c-1.825-1.216-30.411-19.463-32.844-21.288
				C189.752,302.992,205.876,317.899,205.146,318.994z"/>
			<path style="fill:#FFFFFF;" d="M333.9,280.488l1.086-0.187C334.536,280.341,334.162,280.401,333.9,280.488z"/>
		</g>
		<path style="fill:#263238;" d="M221.157,350.886l42.365,3.168c0,0,58.964,0.624,83.599-1.181
			c38.806-2.844,50.862-5.332,50.862-5.332l12.843-2.115c2.281-0.376,4.546-0.844,6.788-1.405l13.474-3.369l11.865-9.951
			l26.217-22.964l12.108-11.949c-15.998-15.318-46.827-44.157-52.63-44.603c-7.907-0.608-63.567,35.957-63.567,35.957
			s-25.887-4.427-29.536-3.21s-71.591,67.484-71.591,67.484s-9.732-3.041-11.556-3.041c-1.118,0-6.77-4.907-10.982-8.709
			c-2.762-2.493-6.847-2.835-9.976-0.823c-3.568,2.294-7.826,4.737-8.844,4.058c-1.825-1.217-39.36-29.535-41.793-31.36
			s-21.831,0-21.831,0s-25.685-53.192-37.241-51.367c-6.298,0.995-36.82,14.065-63.291,25.754
			c-18.877,11.063-34.733,20.714-34.733,20.714c25.094,13.826,80.331,25.805,122.223,33.95
			C188.69,348.906,221.157,350.886,221.157,350.886z"/>
		<path style="fill:none;stroke:#263238;stroke-linecap:round;stroke-linejoin:round;stroke-miterlimit:10;" d="M23.707,306.641
			c0,0,83.935-51.091,95.491-52.915c11.556-1.825,56.565,48.658,56.565,48.658s11.556-1.217,13.989,0.608
			c2.433,1.825,31.019,20.071,32.844,21.288c1.825,1.216,9.123,6.69,9.123,6.69s18.855-1.216,20.68-1.216
			c1.825,0,11.556,3.041,11.556,3.041s66.296-51.091,69.946-52.307c3.649-1.217,27.37,2.433,27.37,2.433s47.441-48.05,55.348-47.441
			c7.907,0.608,67.096,57.905,67.096,57.905l-14.544,14.352L442.954,330.7l-11.865,9.951l-13.474,3.369
			c-2.243,0.561-4.507,1.029-6.788,1.405l-12.843,2.115c0,0-12.056,2.488-50.862,5.332c-24.635,1.805-83.599,1.181-83.599,1.181
			l-42.365-3.168c0,0-32.467-1.98-75.228-10.294C104.038,332.446,48.801,320.467,23.707,306.641z"/>
	</g>
</g>
<g id="Floor">
	<g>
		<path style="fill:none;stroke:#263238;stroke-linecap:round;stroke-linejoin:round;stroke-miterlimit:10;" d="M8.867,301.605
			c0,0,109.47,46.125,241.018,51.309c137.049,5.401,182.282-12.827,182.282-12.827"/>
		<path style="fill:none;stroke:#263238;stroke-linecap:round;stroke-linejoin:round;stroke-miterlimit:10;" d="M162.744,459.113
			c14.335-3.234,28.668-6.737,42.829-10.503c15.84-4.21,31.44-8.76,46.6-13.62h0.01c4.46-1.43,8.88-2.88,13.26-4.37
			c8.91-3.02,17.62-6.16,26.09-9.4c1.3-0.5,2.59-1,3.88-1.5c2.4-0.94,4.79-1.88,7.15-2.84c8.52-3.45,16.77-7.01,24.66-10.69
			c3.78-1.75,7.48-3.53,11.1-5.34c35.5-17.75,67.46-40.2,92.67-60.33l0.01-0.01c35.19-28.12,57.2-51.73,57.2-51.73"/>
		<path style="fill:none;stroke:#263238;stroke-linecap:round;stroke-linejoin:round;stroke-miterlimit:10;" d="M145.232,462.93
			c3.407-0.717,6.818-1.45,10.23-2.198"/>
	</g>
</g>
<g id="Trees">
	<g>
		<path style="opacity:0.18;" d="M46.879,337.96c0,0-12.374,2.008-20.924,5.978c-8.551,3.97-14.353,7.329-9.772,8.551
			c4.581,1.221,32.984-14.528,32.984-14.528H46.879"/>
		<g>
			<path style="fill:#92E3A9;" d="M57.701,310.454c0,6.394-3.468,11.671-7.967,12.505c-0.409,0.071-0.818,0.11-1.243,0.11
				c-5.081,0-9.202-5.647-9.202-12.615c0-5.788,2.847-23.319,6.732-29.068c0.779-1.164,1.612-1.848,2.47-1.848
				C53.58,279.538,57.701,303.486,57.701,310.454z"/>
			<path style="opacity:0.2;" d="M54.311,312.051c0,4.656-1.84,8.722-4.577,10.908c-0.409,0.071-0.818,0.11-1.243,0.11
				c-5.081,0-9.202-5.647-9.202-12.615c0-5.788,2.847-23.319,6.732-29.068C50.67,283.966,54.311,305.507,54.311,312.051z"/>
			<polygon style="fill:#263238;" points="43.519,311.082 46.456,312.107 47.91,314.084 47.656,320.138 45.963,318.989 
				47.603,321.391 46.879,337.96 49.166,337.96 48.778,316.79 53.655,314.102 50.867,315.133 51.426,313.455 50.094,315.419 
				48.763,315.911 48.668,310.401 53.511,303.966 50.916,306.562 51.355,304.757 50.113,307.364 48.641,308.836 48.493,300.227 
				47.965,312.783 43.376,307.92 45.897,311.347 			"/>
		</g>
	</g>
	<g>
		<polyline style="opacity:0.18;" points="378.637,365.226 393.017,367.452 390.88,369.895 376.704,365.646 378.637,365.226 		"/>
		<g>
			<path style="fill:#92E3A9;" d="M386.816,339.134c0,6.506-3.793,11.805-8.518,11.954c-0.067,0.007-0.142,0.007-0.209,0.007
				c-4.814,0-8.727-5.358-8.727-11.961c0-6.596,3.913-29.289,8.727-29.289c0.514,0,1.014,0.253,1.505,0.716
				C383.693,314.481,386.816,333.239,386.816,339.134z"/>
			<path style="opacity:0.2;" d="M386.816,339.134c0,6.506-3.793,11.805-8.518,11.954c-3.719-1.364-6.454-6.014-6.454-11.537
				c0-6.148,3.391-26.263,7.751-28.991C383.693,314.481,386.816,333.239,386.816,339.134z"/>
			<polygon style="fill:#263238;" points="382.98,342.592 380.339,343.569 380.869,341.979 379.606,343.84 378.345,344.307 
				378.255,339.085 382.844,332.988 380.385,335.447 380.801,333.737 379.624,336.208 378.229,337.603 378.089,329.445 
				377.589,341.343 373.24,336.734 375.629,339.982 373.376,339.731 376.159,340.702 377.537,342.576 377.296,348.313 
				375.692,347.224 377.246,349.5 376.704,365.646 378.637,365.226 378.359,345.14 			"/>
		</g>
	</g>
	<g>
		<path style="fill:#92E3A9;" d="M445.988,298.37c0,17.9-7.882,33.289-19.142,39.987c-3.883,2.324-8.171,3.609-12.674,3.609
			c-17.568,0-31.816-19.517-31.816-43.596c0-19.806,9.643-79.324,22.852-99.808c2.844-4.417,5.846-7.016,8.965-7.016
			C431.74,191.546,445.988,274.292,445.988,298.37z"/>
		<path style="opacity:0.2;" d="M437.933,305.314c0,13.209-4.287,25.06-11.086,33.043c-3.883,2.324-8.171,3.609-12.674,3.609
			c-17.568,0-31.816-19.517-31.816-43.596c0-19.806,9.643-79.324,22.852-99.808c0.303-0.043,0.621-0.072,0.924-0.072
			C423.699,198.49,437.933,281.235,437.933,305.314z"/>
		<polygon style="fill:#263238;" points="396.987,300.532 407.133,304.072 412.159,310.904 411.28,331.823 405.431,327.854 
			411.098,336.152 408.467,396.301 418.404,396.301 415.158,320.253 432.008,310.964 422.375,314.527 424.308,308.729 
			419.703,315.515 415.105,317.216 414.777,298.175 431.511,275.942 422.543,284.911 424.06,278.675 419.77,287.684 414.684,292.77 
			414.171,263.022 412.348,306.408 396.49,289.603 405.201,301.445 		"/>
	</g>
	<g>
		<path style="opacity:0.18;" d="M135.75,381.974l-46.739,10.113c0,0-62.25,17.173-61.714,21.466s63.324-13.953,76.203-17.709
			c12.879-3.757,37.237-13.87,37.237-13.87H135.75"/>
		<g>
			<path style="fill:#92E3A9;" d="M159.366,322.032c0,15.212-8.999,27.544-20.096,27.544c-0.338,0-0.688-0.012-1.026-0.035h-0.012
				c-10.619-0.734-19.07-12.776-19.07-27.509c0-13.521,7.122-56.336,16.494-65.684c1.177-1.177,2.378-1.818,3.613-1.818
				C150.368,254.529,159.366,306.82,159.366,322.032z"/>
			<path style="opacity:0.2;" d="M153.165,322.918c0,12.764-6.329,23.488-14.92,26.623h-0.012
				c-10.619-0.734-19.07-12.776-19.07-27.509c0-13.521,7.122-56.336,16.494-65.684C145.53,263.435,153.165,308.907,153.165,322.918z
				"/>
			<polygon style="fill:#263238;" points="134.822,325.637 137.998,329.955 137.443,343.173 133.747,340.665 137.328,345.908 
				135.75,381.974 140.738,381.974 139.893,335.862 150.54,329.993 144.454,332.244 145.675,328.58 142.765,332.868 139.86,333.943 
				139.652,321.912 150.226,307.863 144.559,313.53 145.518,309.59 142.807,315.283 139.593,318.496 139.269,299.699 
				138.118,327.114 128.097,316.495 133.601,323.978 128.411,323.401 			"/>
		</g>
	</g>
</g>
<g id="Rocks">
	<g>
		<path style="opacity:0.18;" d="M27.801,371.188c0,0-18.213,3.727-13.92,5.874c4.293,2.147,18.246,3.22,18.246,3.22
			s-15.026,5.903-9.66,7.513c5.366,1.61,55.811,0,60.641-4.83s2.683-3.22,4.83-4.83c2.147-1.61,38.114-6.947,38.114-6.947H27.801"/>
		<g>
			<path style="fill:#263238;stroke:#263238;stroke-linecap:round;stroke-linejoin:round;stroke-miterlimit:10;" d="M52.364,358.51
				c0,0,18.62-13.47,23.77-15.451c5.15-1.981,12.678,0.792,12.678,0.792l9.904,8.32l6.339,1.981l11.489,11.093l9.508,5.943H27.801
				c0,0,5.15-7.923,9.112-8.716C40.875,361.679,52.364,358.51,52.364,358.51z"/>
			<path style="fill:#CCCCCC;stroke:#263238;stroke-linecap:round;stroke-linejoin:round;stroke-miterlimit:10;" d="
				M105.055,354.152l-6.339-1.981l-9.904-8.32c0,0-7.527-2.773-12.678-0.792c-2.822,1.085-9.686,5.619-15.317,9.497l-0.134,0.803
				c0,0,15.451-4.754,17.828-4.358c2.377,0.396,8.716,4.754,8.716,4.754l-0.396,4.358c0,0,11.885-1.585,13.47-1.585
				c1.585,0,5.547,3.169,5.547,3.169l5.15,6.735l6.394,4.754h8.661l-9.508-5.943L105.055,354.152z"/>
		</g>
	</g>
	<g>
		<path style="opacity:0.18;" d="M329.904,372.168c0,0,24.208,4.357,28.501,4.357c4.293,0,8.586-1.073,8.586-1.073l16.636-1.61
			l-6.653-1.674H329.904z"/>
		<g>
			<path style="fill:#263238;stroke:#263238;stroke-linecap:round;stroke-linejoin:round;stroke-miterlimit:10;" d="
				M365.207,366.094c0,0-8.921-6.453-11.388-7.402c-2.467-0.949-6.074,0.38-6.074,0.38l-4.745,3.986l-3.037,0.949l-5.504,5.314
				l-4.555,2.847h47.07c0,0-2.467-3.796-4.365-4.176C370.711,367.612,365.207,366.094,365.207,366.094z"/>
			<path style="fill:#CCCCCC;stroke:#263238;stroke-linecap:round;stroke-linejoin:round;stroke-miterlimit:10;" d="
				M339.964,364.006l3.037-0.949l4.745-3.986c0,0,3.606-1.329,6.074-0.38c1.352,0.52,4.64,2.692,7.338,4.55l0.064,0.385
				c0,0-7.402-2.278-8.541-2.088c-1.139,0.19-4.176,2.278-4.176,2.278l0.19,2.088c0,0-5.694-0.759-6.453-0.759
				c-0.759,0-2.657,1.518-2.657,1.518l-2.467,3.227l-3.063,2.278h-4.149l4.555-2.847L339.964,364.006z"/>
		</g>
	</g>
	<g>
		<path style="opacity:0.18;" d="M24.631,426.236c0,0-12.896,2.88-3.237,5.563c9.66,2.683,12.879,4.293,12.879,4.293
			s-37.028,14.489-26.295,19.856c10.733,5.366,20.392,6.976,25.759,6.976s27.369,5.903,38.102,5.903
			c10.733,0,39.712-4.293,49.908-12.879c10.196-8.586,38.638-10.196,42.931-11.27c4.293-1.073,24.638-11.604,24.638-11.604
			l-14.246-6.268c0,0,30.393,3.92,37.906,2.31c7.513-1.61,26.147-10.715,26.147-10.715L24.631,426.236"/>
		<g>
			<path style="fill:#263238;stroke:#263238;stroke-linecap:round;stroke-linejoin:round;stroke-miterlimit:10;" d="M66.23,407.431
				c0,0,30.202-30.202,39.319-30.202s24.503,17.665,26.783,18.805c2.279,1.14,12.537-1.14,15.386,0.57
				c2.849,1.709,10.257,6.268,10.257,6.268l6.268,1.14c0,0,18.235-3.419,25.073-2.279c6.838,1.14,19.945,6.838,21.654,7.978
				c1.71,1.14,11.967,3.989,11.967,3.989l7.978,2.849l10.257,3.419l-66.102,6.838l14.246,6.268H58.252l8.548-6.838H24.631
				c0,0,14.816-11.967,18.805-15.956C47.425,406.291,66.23,407.431,66.23,407.431z"/>
			<path style="fill:#CCCCCC;stroke:#263238;stroke-linecap:round;stroke-linejoin:round;stroke-miterlimit:10;" d="
				M157.975,402.872c0,0-7.408-4.559-10.257-6.268c-2.849-1.71-13.106,0.57-15.386-0.57c-2.263-1.132-17.443-18.544-26.583-18.793
				l0.257,2.314c0,0,3.904,3.578,5.53,6.832c1.626,3.253,2.277,7.157,2.277,7.157l9.109,4.88l12.362-0.976
				c0,0,5.53,2.928,8.783,5.205c3.253,2.277,6.181,5.205,6.506,6.506c0.325,1.301-0.976,3.578-0.976,5.856s8.458,8.783,8.458,8.783
				s-19.844-8.133-18.543-5.53c1.07,2.14,19.511,11.535,26.031,14.807h23.772l-14.246-6.268l4.365-0.452l-0.56-0.28l-20.82-20.169
				l6.188-1.893L157.975,402.872z"/>
			<path style="fill:#CCCCCC;stroke:#263238;stroke-linecap:round;stroke-linejoin:round;stroke-miterlimit:10;" d="
				M230.915,416.548l-7.978-2.849c0,0-10.257-2.849-11.967-3.989c-1.71-1.14-14.816-6.838-21.654-7.978
				c-0.949-0.158-2.122-0.226-3.431-0.23l1.448,1.8c0,0,12.362,2.928,10.735,4.88c-1.626,1.952-6.181,2.277-3.578,3.904
				c1.862,1.164,19.383,6.659,29.198,9.69l17.484-1.809L230.915,416.548z"/>
		</g>
	</g>
</g>
<g id="Bushes_00000123439817152413354900000006724651585596580526_">
	<g>
		<path style="fill:#92E3A9;stroke:#263238;stroke-linecap:round;stroke-linejoin:round;stroke-miterlimit:10;" d="M327.222,406.19
			c-7.89,3.68-16.14,7.24-24.66,10.69c-2.36,0.96-4.75,1.9-7.15,2.84l-4.33-9.17c0,0,0.48-1.61,1.24-3.92
			c2.04-6.15,6.12-17.22,8.64-15.86c3.48,1.87,1.87,9.89,1.87,9.89s8.29-8.02,8.29-4.27c0,3.62-2.01,6.99-2.13,7.2
			c0.36-0.16,8-3.67,7.48-1.32c-0.54,2.4-1.88,4.27-1.88,4.27s4.01-4.54,5.08-2.14c1.07,2.41,1.07,2.41,1.07,2.41
			s1.07-5.08,3.74-3.47C326.202,404.37,326.922,405.5,327.222,406.19z"/>
		<path style="fill:#92E3A9;stroke:#263238;stroke-linecap:round;stroke-linejoin:round;stroke-miterlimit:10;" d="M302.562,416.88
			c-2.36,0.96-4.75,1.9-7.15,2.84c-1.29,0.5-2.58,1-3.88,1.5c-8.47,3.24-17.18,6.38-26.09,9.4c-4.38,1.49-8.8,2.94-13.26,4.37h-0.01
			c-15.16,4.86-30.76,9.41-46.6,13.62c0.93-0.8,2.13-2.25,2.38-4.51c0.35-3.15,5.35-2.23,7.03-1.83c-0.98-0.32-2.93-1.35-3.24-4.49
			c-0.42-4.21,13.06,0.84,13.06,0.84s0,0-0.85-3.37c-0.84-3.37,4.22,0.84,4.22,0.84s-1.27-2.52-1.27-8.42c0-5.9,10.95,5.9,10.95,5.9
			s-1.26-2.53-1.68-5.48c-0.41-2.88,6.8,1.87,7.15,2.1c-0.25-0.34-5.85-8.08-4.2-11.79c1.68-3.79,13.48,8.43,13.48,8.43
			s-0.42-3.79,0.84-8.85c1.26-5.05,5.05,3.79,5.05,3.79s1.69-3.37,2.53-7.16c0.84-3.79,8,0.84,8,0.84s0.43-2.94-2.1-7.16
			c-2.53-4.21,7.16-0.84,7.16-0.84s-7.58-8.42-5.9-12.21c1.69-3.79,16.01,11.37,16.01,11.37s-1.27-3.79,0.42-8.85
			c1.14-3.44,5.22,3.86,7.71,8.87c1.16,2.35,1.98,4.19,1.98,4.19s0.84-6.74,4.63-10.53
			C302.272,396.95,302.542,413.04,302.562,416.88z"/>
		<path style="fill:none;stroke:#263238;stroke-linecap:round;stroke-linejoin:round;stroke-miterlimit:10;" d="M252.172,434.99
			c0,0-3.114-4.36-5.578-7.334"/>
		<path style="fill:none;stroke:#263238;stroke-linecap:round;stroke-linejoin:round;stroke-miterlimit:10;" d="M278.959,421.171
			c0.426,1.34,0.76,2.81,0.894,4.347"/>
		<path style="fill:none;stroke:#263238;stroke-linecap:round;stroke-linejoin:round;stroke-miterlimit:10;" d="M275.576,414.293
			c0,0,1.137,1.544,2.247,3.959"/>
		<path style="fill:none;stroke:#263238;stroke-linecap:round;stroke-linejoin:round;stroke-miterlimit:10;" d="M265.442,430.62
			c0,0,0.026-0.573,0.026-0.702c0.01-0.13,0.033-1.254,0.033-1.504c0.01-1.84-0.148-4.333-1.418-7.703"/>
		<path style="fill:none;stroke:#263238;stroke-linecap:round;stroke-linejoin:round;stroke-miterlimit:10;" d="M285.732,409.749
			c0,0,4.831,5.13,5.934,11.26"/>
	</g>
	<g>
		<path style="opacity:0.18;" d="M355.923,417.061c0,0,42.731,8.835,49.17,8.835s11.27-2.147,13.416-2.147
			c2.147,0,17.173,2.147,20.929,2.683c3.757,0.537,45.417,10.545,30.927,4.642c-14.489-5.903-12.962-7.777-12.962-7.777l11.55-5.451
			L355.923,417.061"/>
		<g>
			<path style="fill:#92E3A9;stroke:#263238;stroke-linecap:round;stroke-linejoin:round;stroke-miterlimit:10;" d="
				M379.993,407.595c0,0-2.975-3.786-0.811-4.057c2.164-0.271,5.409,1.082,5.409,1.082s-5.679-5.679-2.975-5.95
				c2.704-0.27,4.598,1.352,4.598,1.352s-1.623-6.761,0.541-6.22c2.164,0.541,4.868,3.245,4.868,3.245s-4.057-9.195-1.352-9.466
				c2.704-0.27,8.113,7.572,8.113,7.572s0.811-8.654,3.245-5.679c2.434,2.975,2.434,6.22,2.434,6.22s3.516-7.032,5.409-4.327
				c1.893,2.704,1.352,5.409,1.352,5.409s6.483-7.096,7.032-3.786c0.549,3.31,1.352,5.138,1.352,5.138s4.598-4.327,4.868-2.704
				c0.27,1.623,0,4.327,0,4.327s8.384-4.327,8.113-0.541c-0.27,3.786-2.704,5.409-2.704,5.409s5.679,0,4.597,1.352
				c-1.082,1.352-1.893,2.704-1.893,2.704s7.843-1.623,7.302,0.271s-1.893,2.704-1.893,2.704s2.975-1.893,3.516-0.27
				c0.541,1.623,0.541,1.623,0.541,1.623s5.679-4.598,5.95-2.164c0.27,2.434-0.811,3.786-0.811,3.786s4.598-1.893,3.786,0.27
				c-0.811,2.164-0.811,2.164-0.811,2.164h10.277H355.923l17.038-2.704c0,0-2.975-1.893-0.811-2.164c2.164-0.27,6.491,0,6.491,0
				s-4.597-3.245-2.975-4.057C377.289,407.325,379.993,407.595,379.993,407.595z"/>
			<path style="fill:#92E3A9;stroke:#263238;stroke-linecap:round;stroke-linejoin:round;stroke-miterlimit:10;" d="
				M429.214,411.652c-1.352-1.082-3.786,2.975-3.786,2.975s-0.811-1.893-2.434-3.245c-1.623-1.352-4.327,2.975-4.327,2.975
				s0,0-0.271-2.434c-0.27-2.434-6.22,2.164-6.22,2.164s1.623-4.327-1.082-7.843c-2.704-3.516-5.95,4.598-5.95,4.598
				s0.811-2.704-0.811-6.22c-1.623-3.516-4.057,7.032-4.057,7.032s-1.893-4.598-4.868-6.22c-2.975-1.623-0.271,8.925-0.271,8.925
				s-1.352-2.164-5.409-2.164c-2.957,0-2.035,3.154-1.318,4.868h42.904C430.795,414.954,430.006,412.285,429.214,411.652z"/>
			
				<line style="fill:none;stroke:#263238;stroke-linecap:round;stroke-linejoin:round;stroke-miterlimit:10;" x1="393.092" y1="412.473" x2="388.244" y2="404.949"/>
			
				<line style="fill:none;stroke:#263238;stroke-linecap:round;stroke-linejoin:round;stroke-miterlimit:10;" x1="405.798" y1="407.959" x2="406.3" y2="402.107"/>
			
				<line style="fill:none;stroke:#263238;stroke-linecap:round;stroke-linejoin:round;stroke-miterlimit:10;" x1="406.801" y1="416.82" x2="409.309" y2="411.804"/>
			
				<line style="fill:none;stroke:#263238;stroke-linecap:round;stroke-linejoin:round;stroke-miterlimit:10;" x1="399.779" y1="417.154" x2="397.773" y2="413.81"/>
			<path style="fill:none;stroke:#263238;stroke-linecap:round;stroke-linejoin:round;stroke-miterlimit:10;" d="M412.653,412.64
				c0,0,3.511-6.52,9.53-9.53"/>
		</g>
	</g>
</g>
</svg>
