<?xml version="1.0" encoding="utf-8"?>
<!-- Generator: Adobe Illustrator 27.5.0, SVG Export Plug-In . SVG Version: 6.00 Build 0)  -->
<svg version="1.1" xmlns="http://www.w3.org/2000/svg" xmlns:xlink="http://www.w3.org/1999/xlink" x="0px" y="0px"
	 viewBox="0 0 500 500" style="enable-background:new 0 0 500 500;" xml:space="preserve">
<g id="Background_Simple">
	<g>
		<path style="fill:#92E3A9;" d="M467.336,169.897c-16.111-52.657-57.532-94.812-106.554-117.035
			c-46.764-21.199-105.885-31.672-150.196,0.954c-29.176,21.482-45.702,55.908-72.415,80.004
			c-13.278,11.977-27.814,15.869-43.611,23.033c-38.502,17.46-70.725,51.131-73.376,95.551
			c-4.432,74.267,54.439,125.638,120.129,142.485c86.808,22.263,151.696,22.263,211.322-1.781
			c30.968-12.487,62.481-28.287,84.805-54.148c33.761-39.109,43.091-94.66,35.413-144.889
			C471.591,185.81,469.736,177.741,467.336,169.897z"/>
		<path style="opacity:0.8;fill:#FFFFFF;" d="M467.336,169.897c-16.111-52.657-57.532-94.812-106.554-117.035
			c-46.764-21.199-105.885-31.672-150.196,0.954c-29.176,21.482-45.702,55.908-72.415,80.004
			c-13.278,11.977-27.814,15.869-43.611,23.033c-38.502,17.46-70.725,51.131-73.376,95.551
			c-4.432,74.267,54.439,125.638,120.129,142.485c86.808,22.263,151.696,22.263,211.322-1.781
			c30.968-12.487,62.481-28.287,84.805-54.148c33.761-39.109,43.091-94.66,35.413-144.889
			C471.591,185.81,469.736,177.741,467.336,169.897z"/>
	</g>
</g>
<g id="Trees">
	<g>
		<path style="fill:#DEDEDE;" d="M65.471,308.827c0,0,44.28,4.381,66.723,31.831c0,0,23.711-31.799,66.298-31.148
			c12.358-14.895,19.792-34.023,19.799-54.89c0.016-47.534-38.504-86.081-86.038-86.097c-47.534-0.016-86.081,38.504-86.097,86.038
			c-0.007,20.605,7.231,39.519,19.302,54.341L65.471,308.827z"/>
		<path style="fill:#263238;" d="M174.825,259.046c0,0-26.471,6.275-41.079,27.56l-0.834-30.962l0.059,0.413
			c0,0,14.948-26.906,41.854-35.127c0,0-27.702,6.575-42.065,29.065l-2.031-75.403l-0.629,93.464
			c-14.076-21.395-39.73-27.694-39.73-27.694c22.658,7.175,36.525,28.578,39.688,33.91l-0.207,30.791
			c-14.126-21.099-39.48-27.332-39.48-27.332c22.12,7.005,35.855,27.561,39.439,33.496l-0.575,110.269h7.474l-1.815-92.298
			c4.822-7.302,18.621-25.523,39.932-32.034c0,0-25.31,6.004-40.09,26.172l-0.827-30.723
			C137.549,286.776,151.805,266.08,174.825,259.046z"/>
		<path style="opacity:0.6;fill:#FFFFFF;" d="M174.825,259.046c0,0-26.471,6.275-41.079,27.56l-0.834-30.962l0.059,0.413
			c0,0,14.948-26.906,41.854-35.127c0,0-27.702,6.575-42.065,29.065l-2.031-75.403l-0.629,93.464
			c-14.076-21.395-39.73-27.694-39.73-27.694c22.658,7.175,36.525,28.578,39.688,33.91l-0.207,30.791
			c-14.126-21.099-39.48-27.332-39.48-27.332c22.12,7.005,35.855,27.561,39.439,33.496l-0.575,110.269h7.474l-1.815-92.298
			c4.822-7.302,18.621-25.523,39.932-32.034c0,0-25.31,6.004-40.09,26.172l-0.827-30.723
			C137.549,286.776,151.805,266.08,174.825,259.046z"/>
	</g>
	<g>
		<path style="fill:#DEDEDE;" d="M309.309,308.827c0,0,44.28,4.381,66.723,31.831c0,0,23.711-31.799,66.298-31.148
			c12.358-14.895,19.792-34.023,19.799-54.89c0.016-47.534-38.504-86.081-86.038-86.097c-47.534-0.016-86.081,38.504-86.097,86.038
			c-0.007,20.605,7.231,39.519,19.302,54.341L309.309,308.827z"/>
		<path style="fill:#263238;" d="M418.662,259.046c0,0-26.471,6.275-41.079,27.56l-0.834-30.962l0.059,0.413
			c0,0,14.948-26.906,41.854-35.127c0,0-27.702,6.575-42.065,29.065l-2.031-75.403l-0.629,93.464
			c-14.076-21.395-39.73-27.694-39.73-27.694c22.658,7.175,36.525,28.578,39.688,33.91l-0.207,30.791
			c-14.126-21.099-39.481-27.332-39.481-27.332c22.12,7.005,35.855,27.561,39.439,33.496l-0.575,111.322h7.474l-1.815-93.351
			c4.822-7.302,18.621-25.523,39.932-32.034c0,0-25.31,6.004-40.09,26.172l-0.828-30.723
			C381.386,286.776,395.643,266.08,418.662,259.046z"/>
		<path style="opacity:0.6;fill:#FFFFFF;" d="M418.662,259.046c0,0-26.471,6.275-41.079,27.56l-0.834-30.962l0.059,0.413
			c0,0,14.948-26.906,41.854-35.127c0,0-27.702,6.575-42.065,29.065l-2.031-75.403l-0.629,93.464
			c-14.076-21.395-39.73-27.694-39.73-27.694c22.658,7.175,36.525,28.578,39.688,33.91l-0.207,30.791
			c-14.126-21.099-39.481-27.332-39.481-27.332c22.12,7.005,35.855,27.561,39.439,33.496l-0.575,111.322h7.474l-1.815-93.351
			c4.822-7.302,18.621-25.523,39.932-32.034c0,0-25.31,6.004-40.09,26.172l-0.828-30.723
			C381.386,286.776,395.643,266.08,418.662,259.046z"/>
	</g>
	<g>
		<path style="fill:#EDEDED;" d="M122.889,258.155c0,0,49.369,4.885,74.392,35.489c0,0,26.436-35.454,73.918-34.728
			c13.779-16.607,22.067-37.934,22.075-61.199c0.018-52.997-42.93-95.975-95.927-95.993c-52.998-0.018-95.975,42.93-95.994,95.927
			c-0.008,22.974,8.062,44.062,21.521,60.587L122.889,258.155z"/>
		<path style="fill:#263238;" d="M244.813,202.652c0,0-29.514,6.996-45.801,30.728l-0.93-34.521l0.066,0.46
			c0,0,16.666-29.999,46.665-39.165c0,0-30.886,7.33-46.9,32.406l-2.265-84.071l-0.702,104.208
			c-15.694-23.854-44.296-30.877-44.296-30.877c25.263,8,40.723,31.863,44.25,37.808l-0.231,34.33
			c-15.75-23.524-44.019-30.473-44.019-30.473c24.662,7.81,39.977,30.729,43.972,37.346l-0.641,158.954h8.333l-2.023-138.917
			c5.376-8.142,20.762-28.457,44.522-35.717c0,0-28.219,6.694-44.698,29.18l-0.923-34.254
			C203.252,233.569,219.147,210.495,244.813,202.652z"/>
		<path style="opacity:0.6;fill:#FFFFFF;" d="M244.813,202.652c0,0-29.514,6.996-45.801,30.728l-0.93-34.521l0.066,0.46
			c0,0,16.666-29.999,46.665-39.165c0,0-30.886,7.33-46.9,32.406l-2.265-84.071l-0.702,104.208
			c-15.694-23.854-44.296-30.877-44.296-30.877c25.263,8,40.723,31.863,44.25,37.808l-0.231,34.33
			c-15.75-23.524-44.019-30.473-44.019-30.473c24.662,7.81,39.977,30.729,43.972,37.346l-0.641,158.954h8.333l-2.023-138.917
			c5.376-8.142,20.762-28.457,44.522-35.717c0,0-28.219,6.694-44.698,29.18l-0.923-34.254
			C203.252,233.569,219.147,210.495,244.813,202.652z"/>
	</g>
</g>
<g id="Floor">
	<g>
		<path style="fill:none;stroke:#263238;stroke-miterlimit:10;" d="M467.073,423.183c4.357,0.195,6.954,0.33,6.954,0.33"/>
		<path style="fill:none;stroke:#263238;stroke-miterlimit:10;" d="M47.496,424.685c0,0,26.365-0.586,49.215-1.758
			c22.85-1.172,63.277-2.344,86.712-2.344s48.043-4.101,97.259,0c49.215,4.101,80.853,3.515,108.977,1.758
			c19.114-1.195,51.22-0.224,69.827,0.52"/>
		<path style="fill:none;stroke:#263238;stroke-miterlimit:10;" d="M195.577,442.5c7.832-0.344,20.651-0.971,37.062-1.996
			c28.123-1.758,43.942,2.929,63.863,2.929c19.92,0,28.123,0.586,34.568,0.586"/>
		<path style="fill:none;stroke:#263238;stroke-miterlimit:10;" d="M186.939,442.847c0,0,1.689-0.056,4.857-0.186"/>
		<path style="fill:none;stroke:#263238;stroke-miterlimit:10;" d="M210.861,459.838c3.374,0,5.373,0,5.373,0"/>
		<path style="fill:none;stroke:#263238;stroke-miterlimit:10;" d="M76.069,456.224c10.577-1.069,25.437-2.478,33.532-2.83
			c13.476-0.586,45.114,6.445,65.62,6.445c10.602,0,21.204,0,28.972,0"/>
		<path style="fill:none;stroke:#263238;stroke-miterlimit:10;" d="M63.901,457.495c0,0,2.129-0.232,5.522-0.587"/>
		<path style="fill:none;stroke:#263238;stroke-miterlimit:10;" d="M431.855,456.523c4.282,0.225,6.968,0.386,6.968,0.386"/>
		<path style="fill:none;stroke:#263238;stroke-miterlimit:10;" d="M284.733,462.182c0,0,28.123-1.758,46.872-5.273
			c18.749-3.515,39.255-1.758,58.59-1.758c10.669,0,24.371,0.535,34.51,1.015"/>
	</g>
</g>
<g id="Character">
	<g>
		<g>
			<path style="fill:#263238;stroke:#263238;stroke-miterlimit:10;" d="M217.275,303.534c0,0-2.52,16.919,0,29.519
				c2.52,12.599,5.04,24.839,5.04,24.839s-2.16,12.6-0.72,23.399c1.44,10.8,3.96,35.279,3.24,39.599
				c-0.72,4.32-5.04,12.6-11.88,18.719c-6.84,6.12-6.12,9.72-3.96,11.52c2.16,1.8,12.6,2.16,17.639,0.72
				c5.04-1.44,10.08-5.76,11.88-6.48c1.8-0.72,7.56-0.36,9-3.24c1.44-2.88-1.44-19.439-2.16-21.239
				c-0.72-1.8,2.88-33.479,3.6-42.479s0.36-23.039,0.36-23.039s4.32-33.839,2.52-45.358S217.275,303.534,217.275,303.534z"/>
			<path style="fill:#FFFFFF;stroke:#263238;stroke-miterlimit:10;" d="M238.515,445.369c1.8-0.72,7.56-0.36,9-3.24
				c1.44-2.88-1.44-19.439-2.16-21.239c-0.646-1.616,2.186-27.29,3.294-39.044c-8.589,3.136-20.101,1.586-26.959,0.163
				c1.452,11.125,3.85,34.653,3.146,38.881c-0.72,4.32-5.04,12.599-11.88,18.719c-6.84,6.12-6.12,9.72-3.96,11.52
				c2.16,1.8,12.6,2.16,17.639,0.72C231.675,450.409,236.715,446.089,238.515,445.369z"/>
			<path style="fill:#263238;stroke:#263238;stroke-miterlimit:10;" d="M245.761,382.697c-8.144,1.942-17.956,0.582-24.072-0.687
				c0.393,3.008,0.854,6.924,1.305,11.118c4.497,1.537,14.408,3.949,24.534,0.02c0.373-3.704,0.726-7.2,1.001-10.054
				C247.759,383,246.825,382.864,245.761,382.697z"/>
			<path style="fill:#FFFFFF;stroke:#263238;stroke-miterlimit:10;" d="M220.515,372.292c0,0,7.92,1.8,15.839,2.16
				c7.92,0.36,14.4-2.16,14.4-2.16s2.16,0.72,1.44,3.6c-0.72,2.88-0.36,12.24-1.8,14.4c-1.44,2.16-10.08,2.52-16.919,2.52
				c-6.84,0-11.88-1.44-12.6-3.24s-1.44-14.4-1.44-14.4S217.995,373.372,220.515,372.292z"/>
			<path style="fill:#FFFFFF;stroke:#263238;stroke-miterlimit:10;" d="M226.635,451.849c5.04-1.44,10.08-5.76,11.88-6.48
				c1.8-0.72,7.56-0.36,9-3.24c0.401-0.802,0.466-2.667,0.337-4.978c-3.088,0.314-8.074,1.915-12.217,6.058
				c-4.68,4.68-8.64,6.84-16.919,7.2c-5.271,0.229-9.075-1.727-11.15-3.182c-0.295,1.763,0.397,3.041,1.43,3.902
				C211.156,452.929,221.595,453.289,226.635,451.849z"/>
		</g>
		<g>
			<path style="fill:#263238;stroke:#263238;stroke-miterlimit:10;" d="M295.186,303.534c0,0,2.52,16.919,0,29.519
				c-2.52,12.599-5.04,24.839-5.04,24.839s2.16,12.6,0.72,23.399c-1.44,10.8-3.96,35.279-3.24,39.599
				c0.72,4.32,5.04,12.6,11.88,18.719c6.84,6.12,6.12,9.72,3.96,11.52s-12.6,2.16-17.639,0.72c-5.04-1.44-10.08-5.76-11.88-6.48
				c-1.8-0.72-7.56-0.36-9-3.24c-1.44-2.88,1.44-19.439,2.16-21.239c0.72-1.8-2.88-33.479-3.6-42.479s-0.36-23.039-0.36-23.039
				s-4.32-33.839-2.52-45.358S295.186,303.534,295.186,303.534z"/>
			<path style="fill:#FFFFFF;stroke:#263238;stroke-miterlimit:10;" d="M273.947,445.369c-1.8-0.72-7.56-0.36-9-3.24
				c-1.44-2.88,1.44-19.439,2.16-21.239c0.646-1.616-2.186-27.29-3.294-39.044c8.589,3.136,20.101,1.586,26.959,0.163
				c-1.452,11.125-3.85,34.653-3.146,38.881c0.72,4.32,5.04,12.599,11.88,18.719c6.84,6.12,6.12,9.72,3.96,11.52
				s-12.6,2.16-17.639,0.72C280.786,450.409,275.747,446.089,273.947,445.369z"/>
			<path style="fill:#263238;stroke:#263238;stroke-miterlimit:10;" d="M289.34,394.318c0.49-4.64,1.002-9.018,1.432-12.309
				c-6.858,1.423-18.371,2.973-26.959-0.163c0.311,3.301,0.759,7.701,1.227,12.357C269.924,395.18,280.823,396.831,289.34,394.318z"
				/>
			<path style="fill:#FFFFFF;stroke:#263238;stroke-miterlimit:10;" d="M291.946,372.292c0,0-7.92,1.8-15.84,2.16
				c-7.92,0.36-14.4-2.16-14.4-2.16s-2.16,0.72-1.44,3.6c0.72,2.88,0.36,12.24,1.8,14.4c1.44,2.16,10.08,2.52,16.919,2.52
				c6.84,0,11.88-1.44,12.6-3.24s1.44-14.4,1.44-14.4S294.466,373.372,291.946,372.292z"/>
			<path style="fill:#FFFFFF;stroke:#263238;stroke-miterlimit:10;" d="M285.826,451.849c-5.04-1.44-10.08-5.76-11.88-6.48
				c-1.8-0.72-7.56-0.36-9-3.24c-0.401-0.802-0.466-2.667-0.337-4.978c3.088,0.314,8.074,1.915,12.217,6.058
				c4.68,4.68,8.64,6.84,16.919,7.2c5.271,0.229,9.075-1.727,11.15-3.182c0.295,1.763-0.397,3.041-1.43,3.902
				C301.306,452.929,290.866,453.289,285.826,451.849z"/>
		</g>
		<g>
			<path style="fill:#FFFFFF;stroke:#263238;stroke-miterlimit:10;" d="M334.941,147.114c0,0-0.481-7.218,0.962-10.827
				c1.444-3.609,3.368-6.255,6.977-9.624c3.609-3.368,6.255-5.293,6.255-4.09c0,1.203,0,2.406-1.444,4.331
				c-1.444,1.925-3.368,5.293-3.368,5.293s4.09,0,6.496-0.962c2.406-0.962,7.458-4.09,7.458-4.09s-1.444-7.218-0.481-7.218
				c0.962,0,5.052,8.902,5.774,10.346l0,0c0.447,0.895,0.362,1.962-0.226,2.771c-1.82,2.504-5.831,7.804-8.194,9.258
				c-3.128,1.925-10.586,4.571-10.586,4.571l-0.962,3.85L334.941,147.114z"/>
			<path style="fill:#FFFFFF;stroke:#263238;stroke-miterlimit:10;" d="M364.21,130.425c0,0,0.966-2.07,1.242-4.417
				c0.276-2.346,0.552-7.453-0.966-7.315s-1.38,3.174-1.38,5.383s-1.104,5.935-1.104,6.349
				C362.002,130.839,363.244,132.081,364.21,130.425z"/>
			<path style="fill:#FFFFFF;stroke:#263238;stroke-miterlimit:10;" d="M360.684,135.084c0,0,3.609-4.09,3.609-6.015
				c0-1.925-0.722-10.586-2.406-10.105c-1.684,0.481-0.722,9.624-0.722,9.624l-0.481,3.128V135.084z"/>
			<path style="fill:#FFFFFF;stroke:#263238;stroke-miterlimit:10;" d="M340.715,144.708c0,0-0.241-0.962,1.925-4.812
				c2.165-3.85,11.067-5.774,12.03-6.015c0.962-0.241,3.609-2.887,3.609-2.887s-3.128-6.496-1.684-6.977s6.015,6.015,6.015,8.661
				c0,2.646-6.255,7.939-6.255,7.939"/>
		</g>
		<g>
			<path style="fill:#92E3A9;stroke:#263238;stroke-miterlimit:10;" d="M328.344,158.884l-9.479,22.451
				c0,0-13.72-25.694-15.217-26.193s-13.72-4.241-13.72-4.241l-10.727-2.495l-21.602,3.975l-21.712-3.975l-10.781,2.495
				c0,0-12.286,3.742-13.79,4.241c-1.504,0.499-15.294,26.193-15.294,26.193l-9.528-22.451l-17.551,8.731
				c0,0,1.755,11.475,5.015,20.206c3.259,8.731,9.778,22.701,10.531,23.698s3.369,2.402,5.015,1.746
				c10.479-4.176,27.799-18.315,28.334-18.94l2.756,26.424c0,0-11.032,26.941-11.533,35.672c-0.501,8.731-4.513,67.852-4.513,67.852
				s12.787,5.737,25.073,6.985c4.309,0.438,16.805,1.214,22.606,1.565l3.653-17.406l3.835,17.368
				c7.347-0.367,21.607-1.107,25.726-1.527c12.223-1.247,24.945-6.985,24.945-6.985s-3.991-59.121-4.49-67.852
				c-0.499-8.731-11.475-35.672-11.475-35.672l2.742-26.424c0.533,0.626,17.764,14.764,28.19,18.94
				c1.637,0.656,4.241-0.748,4.989-1.746s7.234-14.967,10.477-23.698c3.243-8.731,4.989-20.206,4.989-20.206L328.344,158.884z"/>
			<g>
				<path style="fill:#92E3A9;stroke:#263238;stroke-miterlimit:10;" d="M213.202,254.069l35.417,4.541l-0.908,11.806
					c0,0-9.081-0.454-12.714-0.454c-3.632,0-6.189,1.759-7.551,1.759c-1.362,0-5.449-3.178-7.719-4.087
					c-2.27-0.908-8.342-1.759-8.342-1.759L213.202,254.069z"/>
				<circle style="fill:#92E3A9;stroke:#263238;stroke-miterlimit:10;" cx="226.725" cy="268.172" r="0.807"/>
			</g>
			<g>
				<path style="fill:#92E3A9;stroke:#263238;stroke-miterlimit:10;" d="M300.631,254.069l-35.418,4.541l0.908,11.806
					c0,0,9.081-0.454,12.714-0.454c3.633,0,6.189,1.759,7.551,1.759c1.362,0,5.449-3.178,7.719-4.087
					c2.27-0.908,8.342-1.759,8.342-1.759L300.631,254.069z"/>
				<circle style="fill:#92E3A9;stroke:#263238;stroke-miterlimit:10;" cx="287.108" cy="268.172" r="0.807"/>
			</g>
			<path style="fill:#263238;stroke:#263238;stroke-miterlimit:10;" d="M325.814,164.874c3.252,3.446,10.071,9.428,18.029,9.163
				c0.271-0.009,0.525-0.027,0.778-0.044c0.779-3.724,1.184-6.378,1.184-6.378l-17.462-8.731L325.814,164.874z"/>
			<path style="fill:#263238;stroke:#263238;stroke-miterlimit:10;" d="M188.907,164.571l-2.413-5.687l-17.551,8.731
				c0,0,0.451,2.946,1.319,6.986c2.102-0.318,4.844-1.098,8.235-2.793C184.724,168.694,187.684,165.947,188.907,164.571z"/>
			<g>
				<line style="fill:none;stroke:#263238;stroke-miterlimit:10;" x1="255.503" y1="170.693" x2="255.503" y2="309.679"/>
				<line style="fill:none;stroke:#263238;stroke-miterlimit:10;" x1="255.503" y1="165.619" x2="255.503" y2="167.986"/>
				<path style="fill:none;stroke:#263238;stroke-miterlimit:10;" d="M261.927,170.915c0,1.146-0.929,2.075-2.075,2.075
					c-1.146,0-2.075-0.929-2.075-2.075c0-1.146,0.929-2.075,2.075-2.075C260.998,168.84,261.927,169.769,261.927,170.915z"/>
				<path style="fill:none;stroke:#263238;stroke-miterlimit:10;" d="M261.927,192.289c0,1.146-0.929,2.075-2.075,2.075
					c-1.146,0-2.075-0.929-2.075-2.075c0-1.146,0.929-2.075,2.075-2.075C260.998,190.214,261.927,191.143,261.927,192.289z"/>
				<path style="fill:none;stroke:#263238;stroke-miterlimit:10;" d="M261.927,213.663c0,1.146-0.929,2.075-2.075,2.075
					c-1.146,0-2.075-0.929-2.075-2.075c0-1.146,0.929-2.075,2.075-2.075C260.998,211.588,261.927,212.517,261.927,213.663z"/>
				<path style="fill:none;stroke:#263238;stroke-miterlimit:10;" d="M261.927,235.037c0,1.146-0.929,2.075-2.075,2.075
					c-1.146,0-2.075-0.929-2.075-2.075c0-1.146,0.929-2.075,2.075-2.075C260.998,232.962,261.927,233.891,261.927,235.037z"/>
				<path style="fill:none;stroke:#263238;stroke-miterlimit:10;" d="M261.927,256.411c0,1.146-0.929,2.075-2.075,2.075
					c-1.146,0-2.075-0.929-2.075-2.075c0-1.146,0.929-2.075,2.075-2.075C260.998,254.336,261.927,255.265,261.927,256.411z"/>
				<path style="fill:none;stroke:#263238;stroke-miterlimit:10;" d="M261.927,277.786c0,1.146-0.929,2.075-2.075,2.075
					c-1.146,0-2.075-0.929-2.075-2.075c0-1.146,0.929-2.075,2.075-2.075C260.998,275.711,261.927,276.639,261.927,277.786z"/>
				<path style="fill:none;stroke:#263238;stroke-miterlimit:10;" d="M261.927,299.16c0,1.146-0.929,2.075-2.075,2.075
					c-1.146,0-2.075-0.929-2.075-2.075c0-1.146,0.929-2.075,2.075-2.075C260.998,297.085,261.927,298.014,261.927,299.16z"/>
			</g>
			<line style="fill:none;stroke:#263238;stroke-miterlimit:10;" x1="298.385" y1="177.069" x2="298.534" y2="174.973"/>
			<line style="fill:none;stroke:#263238;stroke-miterlimit:10;" x1="297.16" y1="194.324" x2="298.183" y2="179.921"/>
			<line style="fill:none;stroke:#263238;stroke-miterlimit:10;" x1="215.067" y1="176.811" x2="214.717" y2="174.599"/>
			<line style="fill:none;stroke:#263238;stroke-miterlimit:10;" x1="217.836" y1="194.324" x2="215.436" y2="179.142"/>
		</g>
		<path style="fill:#263238;stroke:#263238;stroke-miterlimit:10;" d="M269.597,158.26l-1.746,78.329c0,0,8.98,0.748,13.969,0.499
			c4.989-0.249,10.477-3.243,10.477-3.243l-8.232-82.57L269.597,158.26z"/>
		<path style="fill:#263238;stroke:#263238;stroke-miterlimit:10;" d="M243.03,128.484c0,0-6.435,0.378-9.652,0.757
			c-3.217,0.379-3.596,4.353-3.217,6.624c0.378,2.271-2.46,10.977-2.46,12.68c0,1.703,1.325,1.514,4.731,3.407
			c3.407,1.893,12.113,7.192,22.9,8.706c10.788,1.514,23.468-2.65,28.01-4.921c4.542-2.271,9.463-3.596,9.652-7.192
			c0.189-3.596-1.514-7.76-2.46-11.355c-0.946-3.596-3.217-7.003-5.11-7.192c-1.893-0.189-9.463-0.946-14.194-0.946
			C266.498,129.052,243.03,128.484,243.03,128.484z"/>
		<g>
			<path style="fill:#92E3A9;stroke:#263238;stroke-miterlimit:10;" d="M240.38,101.799c0,0,3.974-5.299,7.57-8.138
				c3.596-2.839,10.788-3.785,14.762-3.785s6.435,0.379,10.031,1.893c3.596,1.514,6.813,4.921,8.706,8.895
				c1.893,3.975,2.65,9.084,2.65,11.355c0,2.271-1.135,6.056-1.135,6.056s-9.274-19.115-16.087-20.818s-17.033,0.946-20.44,3.217
				c-3.407,2.271-5.678,3.785-5.678,3.785L240.38,101.799z"/>
			<g>
				<path style="fill:#FFFFFF;stroke:#263238;stroke-miterlimit:10;" d="M240.38,125.456c0,0,0.189,1.893,0.568,2.65
					c0.379,0.757,3.217,1.325,3.217,1.325s0.67,4.97,4.353,8.517c5.11,4.921,11.923,4.542,18.358,3.974
					c6.435-0.568,10.22-7.192,10.977-8.895c0.757-1.703,1.136-3.407,1.136-3.407s2.082,0.946,2.271-5.299
					c0.189-6.245-0.946-13.627-6.435-19.494c-5.488-5.867-14.762-6.056-24.225-2.65s-12.302,14.005-12.302,15.519
					C238.298,119.211,240.38,125.456,240.38,125.456z"/>
				<g>
					<path style="fill:none;stroke:#263238;stroke-miterlimit:10;" d="M264.795,110.505c0,0-1.514,1.893-1.325,2.65
						c0.189,0.757,2.65,0.378,2.65,2.46c0,2.082-1.893,3.217-3.028,3.217"/>
					<path style="fill:none;stroke:#263238;stroke-miterlimit:10;" d="M255.521,123.374c0,0,1.514,3.217,6.245,3.217
						c4.732,0,6.246-3.028,6.246-3.028"/>
					<path style="fill:none;stroke:#263238;stroke-miterlimit:10;" d="M256.467,113.533c0,0-3.217-0.946-5.867,1.136"/>
					<path style="fill:none;stroke:#263238;stroke-miterlimit:10;" d="M267.255,113.533c0,0,3.407-0.568,5.867,1.136"/>
					<path style="fill:none;stroke:#263238;stroke-width:2;stroke-linecap:round;stroke-miterlimit:10;" d="M249.843,109.559
						c0,0,2.271-3.596,7.949-2.65"/>
					<path style="fill:none;stroke:#263238;stroke-width:2;stroke-linecap:round;stroke-miterlimit:10;" d="M267.444,107.098
						c0,0,3.596-0.757,6.056,3.028"/>
				</g>
				<path style="fill:#263238;stroke:#263238;stroke-miterlimit:10;" d="M242.651,114.479c0,0,1.325,5.678,0.189,6.245
					c-1.135,0.568-2.65-2.839-2.65-2.839S240.948,114.858,242.651,114.479z"/>
				<path style="fill:#263238;stroke:#263238;stroke-miterlimit:10;" d="M278.232,118.454c0,0-0.189,5.678,0.379,6.056
					c0.568,0.378,1.136-1.893,1.136-2.46S278.232,118.454,278.232,118.454z"/>
			</g>
			<path style="fill:#FFFFFF;stroke:#263238;stroke-miterlimit:10;" d="M264.227,104.827c0,0-6.624-2.082-13.627,1.703
				c-7.003,3.785-10.031,13.059-10.598,14.762c-0.568,1.703,1.135,4.164-0.757,4.542c-1.893,0.379-3.974-1.514-3.974-3.596
				c0-2.082,3.217-10.788,3.217-15.33c0-4.542,3.028-6.813,4.921-8.327c1.893-1.514,12.68-6.245,20.061-5.867
				c7.381,0.379,15.898,6.813,18.169,10.598c2.271,3.785,1.703,10.031,1.703,11.923s0.946,6.813-0.189,9.084
				c-1.135,2.271-1.703,2.46-1.703,2.46s-1.514-4.731-3.217-8.327C276.529,114.858,272.365,105.206,264.227,104.827z"/>
		</g>
		<path style="fill:#263238;stroke:#263238;stroke-miterlimit:10;" d="M283.342,155.738c4.542-2.271,9.463-3.596,9.652-7.192
			c0.189-3.596-1.514-7.76-2.46-11.355c-0.494-1.877-1.35-3.697-2.323-5.04c-0.189-0.114-0.366-0.209-0.516-0.259
			c-1.703-0.568-2.65,0.378-4.731,2.082c-2.082,1.703-10.599,5.299-22.143,4.921c-11.545-0.378-21.765-5.867-23.846-7.76
			c-1.966-1.787-5.614-0.538-6.016-0.393c-0.964,1.46-1.043,3.649-0.797,5.125c0.378,2.271-2.46,10.977-2.46,12.68
			c0,1.703,1.325,1.514,4.731,3.407c3.407,1.893,12.113,7.192,22.9,8.706C266.12,162.172,278.8,158.009,283.342,155.738z"/>
		<path style="fill:#FFFFFF;stroke:#263238;stroke-miterlimit:10;" d="M330.129,148.557c0,0-4.812,10.105-4.812,12.511
			c0,2.406,12.751,9.624,15.879,10.586c3.128,0.962,5.293,0.962,6.015,0.241c0.722-0.722,4.09-13.473,4.09-16.12
			s-2.647-4.09-5.052-5.293c-2.406-1.203-9.383-5.052-11.548-5.052C332.535,145.43,330.61,145.43,330.129,148.557z"/>
		<g>
			<path style="fill:#FFFFFF;stroke:#263238;stroke-miterlimit:10;" d="M180.553,147.114c0,0,0.481-7.218-0.962-10.827
				c-1.444-3.609-3.368-6.255-6.977-9.624c-3.609-3.368-6.255-5.293-6.255-4.09c0,1.203,0,2.406,1.444,4.331
				c1.444,1.925,3.368,5.293,3.368,5.293s-4.09,0-6.496-0.962c-2.406-0.962-7.458-4.09-7.458-4.09s1.443-7.218,0.481-7.218
				c-0.962,0-5.052,8.902-5.774,10.346l0,0c-0.447,0.895-0.362,1.962,0.226,2.771c1.82,2.504,5.831,7.804,8.194,9.258
				c3.128,1.925,10.586,4.571,10.586,4.571l0.962,3.85L180.553,147.114z"/>
			<path style="fill:#FFFFFF;stroke:#263238;stroke-miterlimit:10;" d="M151.284,130.425c0,0-0.966-2.07-1.242-4.417
				c-0.276-2.346-0.552-7.453,0.966-7.315c1.518,0.138,1.38,3.174,1.38,5.383s1.104,5.935,1.104,6.349
				C153.492,130.839,152.25,132.081,151.284,130.425z"/>
			<path style="fill:#FFFFFF;stroke:#263238;stroke-miterlimit:10;" d="M154.81,135.084c0,0-3.609-4.09-3.609-6.015
				c0-1.925,0.722-10.586,2.406-10.105c1.684,0.481,0.722,9.624,0.722,9.624l0.481,3.128V135.084z"/>
			<path style="fill:#FFFFFF;stroke:#263238;stroke-miterlimit:10;" d="M174.779,144.708c0,0,0.241-0.962-1.925-4.812
				c-2.165-3.85-11.067-5.774-12.03-6.015c-0.962-0.241-3.609-2.887-3.609-2.887s3.128-6.496,1.684-6.977
				c-1.444-0.481-6.015,6.015-6.015,8.661c0,2.646,6.255,7.939,6.255,7.939"/>
		</g>
		<path style="fill:#FFFFFF;stroke:#263238;stroke-miterlimit:10;" d="M185.365,148.557c0,0,4.812,10.105,4.812,12.511
			c0,2.406-12.751,9.624-15.879,10.586c-3.128,0.962-5.293,0.962-6.015,0.241c-0.722-0.722-4.09-13.473-4.09-16.12
			s2.646-4.09,5.052-5.293c2.406-1.203,9.383-5.052,11.549-5.052C182.959,145.43,184.884,145.43,185.365,148.557z"/>
	</g>
</g>
<g id="Snow">
	<g>
		<g>
			<path style="fill:#FFFFFF;stroke:#263238;stroke-width:0.5;stroke-miterlimit:10;" d="M251.098,224.434
				c0.399-1.253-0.294-2.592-1.547-2.991c-1.253-0.399-2.592,0.294-2.991,1.547c-0.399,1.253,0.294,2.592,1.547,2.991
				C249.36,226.38,250.699,225.688,251.098,224.434z"/>
			<path style="fill:#FFFFFF;stroke:#263238;stroke-width:0.5;stroke-miterlimit:10;" d="M237.38,179.588
				c0.399-1.253-0.294-2.592-1.547-2.991c-1.253-0.399-2.592,0.294-2.991,1.547c-0.399,1.253,0.294,2.592,1.547,2.991
				C235.642,181.534,236.981,180.841,237.38,179.588z"/>
			<path style="fill:#FFFFFF;stroke:#263238;stroke-width:0.5;stroke-miterlimit:10;" d="M305.764,168.862
				c0.399-1.253-0.294-2.592-1.547-2.991c-1.253-0.399-2.592,0.294-2.991,1.547s0.294,2.592,1.547,2.991
				C304.026,170.808,305.365,170.115,305.764,168.862z"/>
			<path style="fill:#FFFFFF;stroke:#263238;stroke-width:0.5;stroke-miterlimit:10;" d="M282,149.306
				c0.399-1.253-0.294-2.592-1.547-2.991c-1.253-0.399-2.592,0.294-2.991,1.547c-0.399,1.253,0.294,2.592,1.547,2.991
				C280.262,151.252,281.601,150.559,282,149.306z"/>
			<path style="fill:#FFFFFF;stroke:#263238;stroke-width:0.5;stroke-miterlimit:10;" d="M290.684,200.547
				c0.399-1.253-0.294-2.592-1.547-2.991c-1.253-0.399-2.592,0.294-2.991,1.547c-0.399,1.253,0.294,2.592,1.547,2.991
				C288.946,202.493,290.285,201.8,290.684,200.547z"/>
			<path style="fill:#FFFFFF;stroke:#263238;stroke-width:0.5;stroke-miterlimit:10;" d="M276.073,241.544
				c0.612-1.921-0.451-3.975-2.372-4.586c-1.922-0.611-3.975,0.451-4.586,2.372c-0.611,1.921,0.451,3.975,2.372,4.586
				C273.409,244.528,275.462,243.465,276.073,241.544z"/>
			<path style="fill:#FFFFFF;stroke:#263238;stroke-width:0.5;stroke-miterlimit:10;" d="M255.04,172.779
				c0.611-1.922-0.451-3.975-2.372-4.586c-1.922-0.611-3.975,0.451-4.586,2.372c-0.611,1.922,0.451,3.975,2.372,4.586
				C252.375,175.763,254.428,174.701,255.04,172.779z"/>
			<path style="fill:#FFFFFF;stroke:#263238;stroke-width:0.5;stroke-miterlimit:10;" d="M359.894,156.333
				c0.611-1.922-0.451-3.975-2.372-4.586c-1.922-0.611-3.975,0.451-4.587,2.372c-0.611,1.922,0.451,3.975,2.372,4.586
				C357.229,159.316,359.283,158.254,359.894,156.333z"/>
			<path style="fill:#FFFFFF;stroke:#263238;stroke-width:0.5;stroke-miterlimit:10;" d="M323.456,126.347
				c0.611-1.922-0.451-3.975-2.372-4.586c-1.922-0.611-3.975,0.451-4.586,2.372c-0.611,1.922,0.451,3.975,2.372,4.586
				S322.845,128.268,323.456,126.347z"/>
			<path style="fill:#FFFFFF;stroke:#263238;stroke-width:0.5;stroke-miterlimit:10;" d="M336.772,204.917
				c0.611-1.922-0.451-3.975-2.372-4.586c-1.921-0.611-3.975,0.451-4.586,2.372c-0.611,1.922,0.451,3.975,2.372,4.586
				C334.107,207.9,336.161,206.838,336.772,204.917z"/>
		</g>
		<g>
			<path style="fill:#FFFFFF;stroke:#263238;stroke-width:0.5;stroke-miterlimit:10;" d="M175.66,115.969
				c0.399-1.253-0.294-2.592-1.547-2.991c-1.253-0.399-2.592,0.294-2.991,1.547c-0.399,1.253,0.294,2.592,1.547,2.991
				C173.922,117.915,175.262,117.223,175.66,115.969z"/>
			<path style="fill:#FFFFFF;stroke:#263238;stroke-width:0.5;stroke-miterlimit:10;" d="M161.943,71.123
				c0.399-1.253-0.294-2.592-1.547-2.991c-1.253-0.399-2.592,0.294-2.991,1.547c-0.399,1.253,0.294,2.592,1.547,2.991
				C160.205,73.069,161.544,72.376,161.943,71.123z"/>
			<path style="fill:#FFFFFF;stroke:#263238;stroke-width:0.5;stroke-miterlimit:10;" d="M230.326,60.397
				c0.399-1.253-0.294-2.592-1.547-2.991c-1.253-0.399-2.592,0.294-2.991,1.547c-0.399,1.253,0.294,2.592,1.547,2.991
				C228.588,62.343,229.927,61.65,230.326,60.397z"/>
			<path style="fill:#FFFFFF;stroke:#263238;stroke-width:0.5;stroke-miterlimit:10;" d="M206.562,40.841
				c0.399-1.253-0.294-2.592-1.547-2.991c-1.253-0.399-2.592,0.294-2.991,1.547c-0.399,1.253,0.294,2.592,1.547,2.991
				C204.824,42.787,206.164,42.094,206.562,40.841z"/>
			<path style="fill:#FFFFFF;stroke:#263238;stroke-width:0.5;stroke-miterlimit:10;" d="M215.247,92.082
				c0.399-1.253-0.294-2.592-1.547-2.991c-1.253-0.399-2.592,0.294-2.991,1.547s0.294,2.592,1.547,2.991
				C213.509,94.028,214.848,93.335,215.247,92.082z"/>
			<path style="fill:#FFFFFF;stroke:#263238;stroke-width:0.5;stroke-miterlimit:10;" d="M200.636,133.079
				c0.611-1.922-0.451-3.975-2.372-4.587c-1.922-0.611-3.975,0.451-4.586,2.372c-0.611,1.922,0.451,3.975,2.372,4.586
				C197.971,136.063,200.024,135.001,200.636,133.079z"/>
			<path style="fill:#FFFFFF;stroke:#263238;stroke-width:0.5;stroke-miterlimit:10;" d="M179.602,64.314
				c0.611-1.921-0.451-3.975-2.372-4.586c-1.922-0.611-3.975,0.451-4.587,2.372c-0.611,1.921,0.451,3.975,2.372,4.586
				C176.937,67.298,178.991,66.236,179.602,64.314z"/>
			<path style="fill:#FFFFFF;stroke:#263238;stroke-width:0.5;stroke-miterlimit:10;" d="M284.457,47.868
				c0.611-1.922-0.451-3.975-2.372-4.586c-1.922-0.611-3.975,0.451-4.586,2.372c-0.611,1.922,0.451,3.975,2.372,4.586
				C281.792,50.851,283.845,49.789,284.457,47.868z"/>
			<path style="fill:#FFFFFF;stroke:#263238;stroke-width:0.5;stroke-miterlimit:10;" d="M261.335,96.451
				c0.611-1.922-0.451-3.975-2.372-4.586c-1.922-0.611-3.975,0.451-4.586,2.372c-0.611,1.922,0.451,3.975,2.372,4.586
				C258.67,99.435,260.723,98.373,261.335,96.451z"/>
		</g>
		<g>
			<path style="fill:#FFFFFF;stroke:#263238;stroke-width:0.5;stroke-miterlimit:10;" d="M344.195,137.61
				c0.399-1.253-0.294-2.592-1.547-2.991s-2.592,0.294-2.991,1.547c-0.399,1.253,0.294,2.592,1.547,2.991
				C342.457,139.556,343.796,138.863,344.195,137.61z"/>
			<path style="fill:#FFFFFF;stroke:#263238;stroke-width:0.5;stroke-miterlimit:10;" d="M330.477,92.764
				c0.399-1.253-0.294-2.592-1.547-2.991c-1.253-0.399-2.592,0.294-2.991,1.547c-0.399,1.253,0.294,2.592,1.547,2.991
				C328.739,94.71,330.078,94.017,330.477,92.764z"/>
			<path style="fill:#FFFFFF;stroke:#263238;stroke-width:0.5;stroke-miterlimit:10;" d="M398.861,82.037
				c0.399-1.253-0.294-2.592-1.547-2.991c-1.253-0.399-2.592,0.294-2.991,1.547c-0.399,1.253,0.294,2.592,1.547,2.991
				C397.123,83.983,398.462,83.29,398.861,82.037z"/>
			<path style="fill:#FFFFFF;stroke:#263238;stroke-width:0.5;stroke-miterlimit:10;" d="M375.097,62.481
				c0.399-1.253-0.294-2.592-1.547-2.991c-1.253-0.399-2.592,0.294-2.991,1.547c-0.399,1.253,0.294,2.592,1.547,2.991
				C373.359,64.427,374.698,63.735,375.097,62.481z"/>
			<path style="fill:#FFFFFF;stroke:#263238;stroke-width:0.5;stroke-miterlimit:10;" d="M383.781,113.723
				c0.399-1.253-0.294-2.592-1.547-2.991c-1.253-0.399-2.592,0.294-2.991,1.547c-0.399,1.253,0.294,2.592,1.547,2.991
				C382.043,115.668,383.382,114.976,383.781,113.723z"/>
			<path style="fill:#FFFFFF;stroke:#263238;stroke-width:0.5;stroke-miterlimit:10;" d="M369.17,154.719
				c0.611-1.922-0.451-3.975-2.372-4.586c-1.922-0.611-3.975,0.451-4.586,2.372c-0.611,1.922,0.451,3.975,2.372,4.586
				C366.505,157.703,368.559,156.641,369.17,154.719z"/>
			<path style="fill:#FFFFFF;stroke:#263238;stroke-width:0.5;stroke-miterlimit:10;" d="M348.137,85.955
				c0.611-1.922-0.451-3.975-2.372-4.586c-1.922-0.611-3.975,0.451-4.586,2.372c-0.611,1.922,0.451,3.975,2.372,4.586
				C345.472,88.939,347.525,87.877,348.137,85.955z"/>
			<path style="fill:#FFFFFF;stroke:#263238;stroke-width:0.5;stroke-miterlimit:10;" d="M452.991,69.508
				c0.611-1.922-0.451-3.975-2.372-4.586c-1.922-0.611-3.975,0.451-4.586,2.372c-0.611,1.922,0.451,3.975,2.372,4.587
				C450.326,72.492,452.38,71.43,452.991,69.508z"/>
			<path style="fill:#FFFFFF;stroke:#263238;stroke-width:0.5;stroke-miterlimit:10;" d="M429.869,118.092
				c0.611-1.922-0.451-3.975-2.372-4.586c-1.922-0.611-3.975,0.451-4.586,2.372c-0.611,1.922,0.451,3.975,2.372,4.586
				C427.204,121.076,429.257,120.014,429.869,118.092z"/>
		</g>
		<g>
			<path style="fill:#FFFFFF;stroke:#263238;stroke-width:0.5;stroke-miterlimit:10;" d="M324.452,312.746
				c0.399-1.253-0.294-2.592-1.547-2.991c-1.253-0.399-2.592,0.294-2.991,1.547c-0.399,1.253,0.294,2.592,1.547,2.991
				C322.714,314.691,324.053,313.999,324.452,312.746z"/>
			<path style="fill:#FFFFFF;stroke:#263238;stroke-width:0.5;stroke-miterlimit:10;" d="M310.734,267.899
				c0.399-1.253-0.294-2.592-1.547-2.991c-1.253-0.399-2.592,0.294-2.991,1.547c-0.399,1.253,0.294,2.592,1.547,2.991
				S310.336,269.152,310.734,267.899z"/>
			<path style="fill:#FFFFFF;stroke:#263238;stroke-width:0.5;stroke-miterlimit:10;" d="M379.118,257.173
				c0.399-1.253-0.294-2.592-1.547-2.991c-1.253-0.399-2.592,0.294-2.991,1.547c-0.399,1.253,0.294,2.592,1.547,2.991
				C377.38,259.119,378.719,258.426,379.118,257.173z"/>
			<path style="fill:#FFFFFF;stroke:#263238;stroke-width:0.5;stroke-miterlimit:10;" d="M355.354,237.617
				c0.399-1.253-0.294-2.592-1.547-2.991s-2.592,0.294-2.991,1.547c-0.399,1.253,0.294,2.592,1.547,2.991
				C353.616,239.563,354.955,238.87,355.354,237.617z"/>
			<path style="fill:#FFFFFF;stroke:#263238;stroke-width:0.5;stroke-miterlimit:10;" d="M364.038,288.858
				c0.399-1.253-0.294-2.592-1.547-2.991c-1.253-0.399-2.592,0.294-2.991,1.547c-0.399,1.253,0.294,2.592,1.547,2.991
				C362.3,290.804,363.639,290.111,364.038,288.858z"/>
			<path style="fill:#FFFFFF;stroke:#263238;stroke-width:0.5;stroke-miterlimit:10;" d="M349.427,329.855
				c0.611-1.922-0.451-3.975-2.372-4.586c-1.922-0.611-3.975,0.451-4.587,2.372c-0.611,1.922,0.451,3.975,2.372,4.586
				C346.762,332.839,348.816,331.776,349.427,329.855z"/>
			<path style="fill:#FFFFFF;stroke:#263238;stroke-width:0.5;stroke-miterlimit:10;" d="M328.394,261.09
				c0.611-1.921-0.451-3.975-2.372-4.586c-1.921-0.611-3.975,0.451-4.586,2.372c-0.611,1.921,0.451,3.975,2.372,4.586
				C325.729,264.074,327.782,263.012,328.394,261.09z"/>
			<path style="fill:#FFFFFF;stroke:#263238;stroke-width:0.5;stroke-miterlimit:10;" d="M433.248,244.643
				c0.611-1.922-0.451-3.975-2.372-4.586c-1.922-0.611-3.975,0.451-4.586,2.372c-0.612,1.922,0.451,3.975,2.372,4.586
				C430.583,247.627,432.637,246.565,433.248,244.643z"/>
			<path style="fill:#FFFFFF;stroke:#263238;stroke-width:0.5;stroke-miterlimit:10;" d="M396.81,214.658
				c0.611-1.922-0.451-3.975-2.372-4.586c-1.922-0.611-3.975,0.451-4.587,2.372c-0.611,1.922,0.451,3.975,2.372,4.586
				C394.146,217.641,396.199,216.579,396.81,214.658z"/>
			<path style="fill:#FFFFFF;stroke:#263238;stroke-width:0.5;stroke-miterlimit:10;" d="M410.126,293.227
				c0.611-1.921-0.451-3.975-2.372-4.586c-1.922-0.611-3.975,0.451-4.586,2.372c-0.611,1.922,0.451,3.975,2.372,4.586
				C407.461,296.211,409.515,295.149,410.126,293.227z"/>
		</g>
		<g>
			<path style="fill:#FFFFFF;stroke:#263238;stroke-width:0.5;stroke-miterlimit:10;" d="M273.911,471.584
				c0.399-1.253-0.294-2.592-1.547-2.991c-1.253-0.399-2.592,0.294-2.991,1.547c-0.399,1.253,0.294,2.592,1.547,2.991
				C272.173,473.53,273.512,472.837,273.911,471.584z"/>
			<path style="fill:#FFFFFF;stroke:#263238;stroke-width:0.5;stroke-miterlimit:10;" d="M260.193,426.738
				c0.399-1.253-0.294-2.592-1.547-2.991c-1.253-0.399-2.592,0.294-2.991,1.547c-0.399,1.253,0.294,2.592,1.547,2.991
				C258.456,428.684,259.795,427.991,260.193,426.738z"/>
			<path style="fill:#FFFFFF;stroke:#263238;stroke-width:0.5;stroke-miterlimit:10;" d="M328.577,416.012
				c0.399-1.253-0.294-2.592-1.547-2.991c-1.253-0.399-2.592,0.294-2.991,1.547c-0.399,1.253,0.294,2.592,1.547,2.991
				C326.839,417.957,328.178,417.265,328.577,416.012z"/>
			<path style="fill:#FFFFFF;stroke:#263238;stroke-width:0.5;stroke-miterlimit:10;" d="M304.813,396.456
				c0.399-1.253-0.294-2.592-1.547-2.991c-1.253-0.399-2.592,0.294-2.991,1.547c-0.399,1.253,0.294,2.592,1.547,2.991
				C303.075,398.401,304.414,397.709,304.813,396.456z"/>
			<path style="fill:#FFFFFF;stroke:#263238;stroke-width:0.5;stroke-miterlimit:10;" d="M313.497,447.697
				c0.399-1.253-0.294-2.592-1.547-2.991c-1.253-0.399-2.592,0.294-2.991,1.547c-0.399,1.253,0.294,2.592,1.547,2.991
				C311.759,449.642,313.098,448.95,313.497,447.697z"/>
			<path style="fill:#FFFFFF;stroke:#263238;stroke-width:0.5;stroke-miterlimit:10;" d="M277.853,419.929
				c0.611-1.922-0.451-3.975-2.372-4.586c-1.922-0.611-3.975,0.451-4.586,2.372c-0.611,1.922,0.451,3.975,2.372,4.586
				C275.188,422.913,277.241,421.851,277.853,419.929z"/>
			<path style="fill:#FFFFFF;stroke:#263238;stroke-width:0.5;stroke-miterlimit:10;" d="M382.707,403.482
				c0.611-1.922-0.451-3.975-2.372-4.586c-1.922-0.611-3.975,0.451-4.586,2.372c-0.611,1.922,0.451,3.975,2.372,4.586
				C380.043,406.466,382.096,405.404,382.707,403.482z"/>
			<path style="fill:#FFFFFF;stroke:#263238;stroke-width:0.5;stroke-miterlimit:10;" d="M346.27,373.496
				c0.612-1.922-0.451-3.975-2.372-4.586c-1.922-0.611-3.975,0.451-4.587,2.372c-0.611,1.922,0.451,3.975,2.372,4.586
				C343.605,376.48,345.658,375.418,346.27,373.496z"/>
			<path style="fill:#FFFFFF;stroke:#263238;stroke-width:0.5;stroke-miterlimit:10;" d="M359.585,452.066
				c0.611-1.922-0.451-3.975-2.372-4.586c-1.922-0.611-3.975,0.451-4.586,2.372c-0.611,1.922,0.451,3.975,2.372,4.586
				C356.921,455.05,358.974,453.988,359.585,452.066z"/>
		</g>
		<g>
			<path style="fill:#FFFFFF;stroke:#263238;stroke-width:0.5;stroke-miterlimit:10;" d="M193.213,374.939
				c0.399-1.253-0.294-2.592-1.547-2.991c-1.253-0.399-2.592,0.294-2.991,1.547c-0.399,1.253,0.294,2.592,1.547,2.991
				C191.475,376.885,192.815,376.192,193.213,374.939z"/>
			<path style="fill:#FFFFFF;stroke:#263238;stroke-width:0.5;stroke-miterlimit:10;" d="M179.496,330.093
				c0.399-1.253-0.294-2.592-1.547-2.991c-1.253-0.399-2.592,0.294-2.991,1.547c-0.399,1.253,0.294,2.592,1.547,2.991
				C177.758,332.039,179.097,331.346,179.496,330.093z"/>
			<path style="fill:#FFFFFF;stroke:#263238;stroke-width:0.5;stroke-miterlimit:10;" d="M247.879,319.367
				c0.399-1.253-0.294-2.592-1.547-2.991c-1.253-0.399-2.592,0.294-2.991,1.547c-0.399,1.253,0.294,2.592,1.547,2.991
				C246.141,321.313,247.48,320.62,247.879,319.367z"/>
			<path style="fill:#FFFFFF;stroke:#263238;stroke-width:0.5;stroke-miterlimit:10;" d="M224.115,299.811
				c0.399-1.253-0.294-2.592-1.547-2.991c-1.253-0.399-2.592,0.294-2.991,1.547c-0.399,1.253,0.294,2.592,1.547,2.991
				C222.377,301.757,223.716,301.064,224.115,299.811z"/>
			<path style="fill:#FFFFFF;stroke:#263238;stroke-width:0.5;stroke-miterlimit:10;" d="M232.799,351.052
				c0.399-1.253-0.294-2.592-1.547-2.991c-1.253-0.399-2.592,0.294-2.991,1.547c-0.399,1.253,0.294,2.592,1.547,2.991
				C231.061,352.998,232.401,352.305,232.799,351.052z"/>
			<path style="fill:#FFFFFF;stroke:#263238;stroke-width:0.5;stroke-miterlimit:10;" d="M218.189,392.049
				c0.611-1.922-0.451-3.975-2.372-4.586c-1.922-0.611-3.975,0.451-4.586,2.372c-0.611,1.922,0.451,3.975,2.372,4.586
				C215.524,395.032,217.577,393.97,218.189,392.049z"/>
			<path style="fill:#FFFFFF;stroke:#263238;stroke-width:0.5;stroke-miterlimit:10;" d="M197.155,323.284
				c0.611-1.922-0.451-3.975-2.372-4.586c-1.921-0.611-3.975,0.451-4.586,2.372c-0.611,1.922,0.451,3.975,2.372,4.586
				C194.49,326.268,196.544,325.206,197.155,323.284z"/>
			<path style="fill:#FFFFFF;stroke:#263238;stroke-width:0.5;stroke-miterlimit:10;" d="M302.01,306.837
				c0.611-1.922-0.451-3.975-2.372-4.587c-1.922-0.611-3.975,0.451-4.586,2.372c-0.612,1.922,0.451,3.975,2.372,4.586
				C299.345,309.821,301.398,308.759,302.01,306.837z"/>
			<path style="fill:#FFFFFF;stroke:#263238;stroke-width:0.5;stroke-miterlimit:10;" d="M265.572,276.852
				c0.611-1.922-0.451-3.975-2.372-4.586c-1.922-0.611-3.975,0.451-4.586,2.372c-0.612,1.922,0.451,3.975,2.372,4.586
				C262.907,279.835,264.96,278.773,265.572,276.852z"/>
			<path style="fill:#FFFFFF;stroke:#263238;stroke-width:0.5;stroke-miterlimit:10;" d="M278.888,355.421
				c0.611-1.922-0.451-3.975-2.372-4.586c-1.922-0.612-3.975,0.451-4.586,2.372c-0.611,1.922,0.451,3.975,2.372,4.586
				C276.223,358.405,278.276,357.343,278.888,355.421z"/>
		</g>
		<g>
			<path style="fill:#FFFFFF;stroke:#263238;stroke-width:0.5;stroke-miterlimit:10;" d="M105.976,284.71
				c0.399-1.253-0.294-2.592-1.547-2.991c-1.253-0.399-2.592,0.294-2.991,1.547c-0.399,1.253,0.294,2.592,1.547,2.991
				C104.238,286.656,105.577,285.963,105.976,284.71z"/>
			<path style="fill:#FFFFFF;stroke:#263238;stroke-width:0.5;stroke-miterlimit:10;" d="M92.259,239.863
				c0.399-1.253-0.294-2.592-1.547-2.991c-1.253-0.399-2.592,0.294-2.991,1.547c-0.399,1.253,0.294,2.592,1.547,2.991
				C90.521,241.809,91.86,241.117,92.259,239.863z"/>
			<path style="fill:#FFFFFF;stroke:#263238;stroke-width:0.5;stroke-miterlimit:10;" d="M160.642,229.137
				c0.399-1.253-0.294-2.592-1.547-2.991c-1.253-0.399-2.592,0.294-2.991,1.547c-0.399,1.253,0.294,2.592,1.547,2.991
				C158.904,231.083,160.243,230.39,160.642,229.137z"/>
			<path style="fill:#FFFFFF;stroke:#263238;stroke-width:0.5;stroke-miterlimit:10;" d="M136.878,209.581
				c0.399-1.253-0.294-2.592-1.547-2.991c-1.253-0.399-2.592,0.294-2.991,1.547c-0.399,1.253,0.294,2.592,1.547,2.991
				C135.14,211.527,136.479,210.834,136.878,209.581z"/>
			<path style="fill:#FFFFFF;stroke:#263238;stroke-width:0.5;stroke-miterlimit:10;" d="M145.562,260.822
				c0.399-1.253-0.294-2.592-1.547-2.991c-1.253-0.399-2.592,0.294-2.991,1.547c-0.399,1.253,0.294,2.592,1.547,2.991
				C143.824,262.768,145.164,262.076,145.562,260.822z"/>
			<path style="fill:#FFFFFF;stroke:#263238;stroke-width:0.5;stroke-miterlimit:10;" d="M130.952,301.819
				c0.611-1.922-0.451-3.975-2.372-4.586c-1.922-0.611-3.975,0.451-4.587,2.372c-0.611,1.922,0.451,3.975,2.372,4.586
				C128.287,304.803,130.34,303.741,130.952,301.819z"/>
			<path style="fill:#FFFFFF;stroke:#263238;stroke-width:0.5;stroke-miterlimit:10;" d="M109.918,233.055
				c0.611-1.922-0.451-3.975-2.372-4.586c-1.922-0.611-3.975,0.451-4.586,2.372c-0.611,1.922,0.451,3.975,2.372,4.586
				C107.253,236.038,109.307,234.976,109.918,233.055z"/>
			<path style="fill:#FFFFFF;stroke:#263238;stroke-width:0.5;stroke-miterlimit:10;" d="M214.773,216.608
				c0.611-1.922-0.451-3.975-2.372-4.586c-1.922-0.611-3.975,0.451-4.587,2.372c-0.611,1.922,0.451,3.975,2.372,4.586
				C212.108,219.591,214.161,218.529,214.773,216.608z"/>
			<path style="fill:#FFFFFF;stroke:#263238;stroke-width:0.5;stroke-miterlimit:10;" d="M178.335,186.622
				c0.611-1.922-0.451-3.975-2.372-4.586c-1.922-0.611-3.975,0.451-4.586,2.372c-0.611,1.922,0.451,3.975,2.372,4.586
				C175.67,189.606,177.723,188.544,178.335,186.622z"/>
			<path style="fill:#FFFFFF;stroke:#263238;stroke-width:0.5;stroke-miterlimit:10;" d="M191.65,265.192
				c0.611-1.922-0.451-3.975-2.372-4.587c-1.922-0.611-3.975,0.451-4.586,2.372c-0.611,1.922,0.451,3.975,2.372,4.586
				C188.986,268.175,191.039,267.113,191.65,265.192z"/>
		</g>
		<g>
			<path style="fill:#FFFFFF;stroke:#263238;stroke-width:0.5;stroke-miterlimit:10;" d="M59.852,194.068
				c0.399-1.253-0.294-2.592-1.547-2.991c-1.253-0.399-2.592,0.294-2.991,1.547c-0.399,1.253,0.294,2.592,1.547,2.991
				C58.114,196.014,59.453,195.321,59.852,194.068z"/>
			<path style="fill:#FFFFFF;stroke:#263238;stroke-width:0.5;stroke-miterlimit:10;" d="M46.134,149.222
				c0.399-1.253-0.294-2.592-1.547-2.991c-1.253-0.399-2.592,0.294-2.991,1.547c-0.399,1.253,0.294,2.592,1.547,2.991
				C44.396,151.167,45.735,150.475,46.134,149.222z"/>
			<path style="fill:#FFFFFF;stroke:#263238;stroke-width:0.5;stroke-miterlimit:10;" d="M114.517,138.495
				c0.399-1.253-0.294-2.592-1.547-2.991c-1.253-0.399-2.592,0.294-2.991,1.547c-0.399,1.253,0.294,2.592,1.547,2.991
				C112.78,140.441,114.119,139.749,114.517,138.495z"/>
			<path style="fill:#FFFFFF;stroke:#263238;stroke-width:0.5;stroke-miterlimit:10;" d="M90.754,118.939
				c0.399-1.253-0.294-2.592-1.547-2.991c-1.253-0.399-2.592,0.294-2.991,1.547c-0.399,1.253,0.294,2.592,1.547,2.991
				C89.016,120.885,90.355,120.193,90.754,118.939z"/>
			<path style="fill:#FFFFFF;stroke:#263238;stroke-width:0.5;stroke-miterlimit:10;" d="M99.438,170.18
				c0.399-1.253-0.294-2.592-1.547-2.991c-1.253-0.399-2.592,0.294-2.991,1.547c-0.399,1.253,0.294,2.592,1.547,2.991
				C97.7,172.126,99.039,171.434,99.438,170.18z"/>
			<path style="fill:#FFFFFF;stroke:#263238;stroke-width:0.5;stroke-miterlimit:10;" d="M84.827,211.177
				c0.611-1.922-0.451-3.975-2.372-4.586c-1.922-0.611-3.975,0.451-4.587,2.372c-0.611,1.922,0.451,3.975,2.372,4.587
				C82.162,214.161,84.216,213.099,84.827,211.177z"/>
			<path style="fill:#FFFFFF;stroke:#263238;stroke-width:0.5;stroke-miterlimit:10;" d="M63.793,142.413
				c0.611-1.922-0.451-3.975-2.372-4.586c-1.922-0.611-3.975,0.451-4.586,2.372c-0.611,1.922,0.451,3.975,2.372,4.586
				C61.129,145.397,63.182,144.335,63.793,142.413z"/>
			<path style="fill:#FFFFFF;stroke:#263238;stroke-width:0.5;stroke-miterlimit:10;" d="M168.648,125.966
				c0.611-1.922-0.451-3.975-2.372-4.587s-3.975,0.451-4.587,2.372c-0.611,1.922,0.451,3.975,2.372,4.586
				C165.983,128.95,168.037,127.888,168.648,125.966z"/>
			<path style="fill:#FFFFFF;stroke:#263238;stroke-width:0.5;stroke-miterlimit:10;" d="M132.21,95.98
				c0.611-1.922-0.451-3.975-2.372-4.587c-1.922-0.611-3.975,0.451-4.586,2.372c-0.611,1.922,0.451,3.975,2.372,4.586
				C129.545,98.964,131.599,97.902,132.21,95.98z"/>
			<path style="fill:#FFFFFF;stroke:#263238;stroke-width:0.5;stroke-miterlimit:10;" d="M145.526,174.55
				c0.611-1.922-0.451-3.975-2.372-4.586c-1.922-0.611-3.975,0.451-4.586,2.372c-0.611,1.922,0.451,3.975,2.372,4.587
				C142.861,177.534,144.914,176.471,145.526,174.55z"/>
		</g>
		<g>
			<path style="fill:#FFFFFF;stroke:#263238;stroke-width:0.5;stroke-miterlimit:10;" d="M82.462,52.33
				c0.399-1.253-0.294-2.592-1.547-2.991c-1.253-0.399-2.592,0.294-2.991,1.547c-0.399,1.253,0.294,2.592,1.547,2.991
				C80.724,54.276,82.063,53.583,82.462,52.33z"/>
			<path style="fill:#FFFFFF;stroke:#263238;stroke-width:0.5;stroke-miterlimit:10;" d="M107.437,69.439
				c0.611-1.922-0.451-3.975-2.372-4.586c-1.922-0.611-3.975,0.451-4.587,2.372c-0.611,1.922,0.451,3.975,2.372,4.586
				C104.772,72.423,106.826,71.361,107.437,69.439z"/>
		</g>
		<g>
			<path style="fill:#FFFFFF;stroke:#263238;stroke-width:0.5;stroke-miterlimit:10;" d="M59.397,336.858
				c0.399-1.253-0.294-2.592-1.547-2.991c-1.253-0.399-2.592,0.294-2.991,1.547c-0.399,1.253,0.294,2.592,1.547,2.991
				S58.998,338.111,59.397,336.858z"/>
			<path style="fill:#FFFFFF;stroke:#263238;stroke-width:0.5;stroke-miterlimit:10;" d="M35.633,317.302
				c0.399-1.253-0.294-2.592-1.547-2.991c-1.253-0.399-2.592,0.294-2.991,1.547c-0.399,1.253,0.294,2.592,1.547,2.991
				C33.895,319.248,35.234,318.555,35.633,317.302z"/>
			<path style="fill:#FFFFFF;stroke:#263238;stroke-width:0.5;stroke-miterlimit:10;" d="M44.317,368.543
				c0.399-1.253-0.294-2.592-1.547-2.991c-1.253-0.399-2.592,0.294-2.991,1.547c-0.399,1.253,0.294,2.592,1.547,2.991
				C42.579,370.489,43.918,369.797,44.317,368.543z"/>
			<path style="fill:#FFFFFF;stroke:#263238;stroke-width:0.5;stroke-miterlimit:10;" d="M113.527,324.329
				c0.611-1.922-0.451-3.975-2.372-4.586c-1.922-0.611-3.975,0.451-4.586,2.372c-0.611,1.922,0.451,3.975,2.372,4.587
				C110.862,327.313,112.916,326.25,113.527,324.329z"/>
			<path style="fill:#FFFFFF;stroke:#263238;stroke-width:0.5;stroke-miterlimit:10;" d="M77.09,294.343
				c0.611-1.922-0.451-3.975-2.372-4.586c-1.922-0.612-3.975,0.451-4.586,2.372c-0.611,1.922,0.451,3.975,2.372,4.586
				C74.425,297.327,76.478,296.265,77.09,294.343z"/>
			<path style="fill:#FFFFFF;stroke:#263238;stroke-width:0.5;stroke-miterlimit:10;" d="M90.405,372.913
				c0.612-1.922-0.451-3.975-2.372-4.586c-1.921-0.611-3.975,0.451-4.586,2.372c-0.611,1.922,0.451,3.975,2.372,4.586
				C87.74,375.897,89.794,374.834,90.405,372.913z"/>
		</g>
		<g>
			<path style="fill:#FFFFFF;stroke:#263238;stroke-width:0.5;stroke-miterlimit:10;" d="M369.978,458.672
				c0.399-1.253-0.294-2.592-1.547-2.991c-1.253-0.399-2.592,0.294-2.991,1.547c-0.399,1.253,0.294,2.592,1.547,2.991
				C368.24,460.617,369.579,459.925,369.978,458.672z"/>
			<path style="fill:#FFFFFF;stroke:#263238;stroke-width:0.5;stroke-miterlimit:10;" d="M414.597,428.389
				c0.399-1.253-0.294-2.592-1.547-2.991c-1.253-0.399-2.592,0.294-2.991,1.547c-0.399,1.253,0.294,2.592,1.547,2.991
				C412.859,430.335,414.199,429.642,414.597,428.389z"/>
			<path style="fill:#FFFFFF;stroke:#263238;stroke-width:0.5;stroke-miterlimit:10;" d="M387.637,451.863
				c0.611-1.922-0.451-3.975-2.372-4.586c-1.922-0.611-3.975,0.451-4.586,2.372c-0.611,1.922,0.451,3.975,2.372,4.587
				C384.972,454.846,387.026,453.784,387.637,451.863z"/>
			<path style="fill:#FFFFFF;stroke:#263238;stroke-width:0.5;stroke-miterlimit:10;" d="M456.054,405.43
				c0.611-1.922-0.451-3.975-2.372-4.587s-3.975,0.451-4.586,2.372c-0.611,1.922,0.451,3.975,2.372,4.586
				C453.389,408.414,455.443,407.352,456.054,405.43z"/>
			<path style="fill:#FFFFFF;stroke:#263238;stroke-width:0.5;stroke-miterlimit:10;" d="M420.152,377.744
				c0.399-1.253-0.294-2.592-1.547-2.991c-1.253-0.399-2.592,0.294-2.991,1.547c-0.399,1.253,0.294,2.592,1.547,2.991
				S419.753,378.997,420.152,377.744z"/>
			<path style="fill:#FFFFFF;stroke:#263238;stroke-width:0.5;stroke-miterlimit:10;" d="M396.388,358.188
				c0.399-1.253-0.294-2.592-1.547-2.991c-1.253-0.399-2.592,0.294-2.991,1.547c-0.399,1.253,0.294,2.592,1.547,2.991
				C394.65,360.134,395.989,359.441,396.388,358.188z"/>
			<path style="fill:#FFFFFF;stroke:#263238;stroke-width:0.5;stroke-miterlimit:10;" d="M474.282,365.215
				c0.611-1.922-0.451-3.975-2.372-4.586c-1.922-0.611-3.975,0.451-4.586,2.372c-0.611,1.922,0.451,3.975,2.372,4.586
				C471.617,368.199,473.671,367.136,474.282,365.215z"/>
			<path style="fill:#FFFFFF;stroke:#263238;stroke-width:0.5;stroke-miterlimit:10;" d="M437.844,335.229
				c0.611-1.922-0.451-3.975-2.372-4.586c-1.921-0.611-3.975,0.451-4.586,2.372c-0.611,1.922,0.451,3.975,2.372,4.587
				C435.179,338.213,437.233,337.151,437.844,335.229z"/>
		</g>
		<g>
			<path style="fill:#FFFFFF;stroke:#263238;stroke-width:0.5;stroke-miterlimit:10;" d="M80.87,420.156
				c0.399-1.253-0.294-2.592-1.547-2.991c-1.253-0.399-2.592,0.294-2.991,1.547c-0.399,1.253,0.294,2.592,1.547,2.991
				C79.132,422.102,80.472,421.409,80.87,420.156z"/>
			<path style="fill:#FFFFFF;stroke:#263238;stroke-width:0.5;stroke-miterlimit:10;" d="M149.254,409.43
				c0.399-1.253-0.294-2.592-1.547-2.991s-2.592,0.294-2.991,1.547c-0.399,1.253,0.294,2.592,1.547,2.991
				C147.516,411.376,148.855,410.683,149.254,409.43z"/>
			<path style="fill:#FFFFFF;stroke:#263238;stroke-width:0.5;stroke-miterlimit:10;" d="M125.49,389.874
				c0.399-1.253-0.294-2.592-1.547-2.991c-1.253-0.399-2.592,0.294-2.991,1.547c-0.399,1.253,0.294,2.592,1.547,2.991
				C123.752,391.82,125.091,391.127,125.49,389.874z"/>
			<path style="fill:#FFFFFF;stroke:#263238;stroke-width:0.5;stroke-miterlimit:10;" d="M134.174,441.115
				c0.399-1.253-0.294-2.592-1.547-2.991c-1.253-0.399-2.592,0.294-2.991,1.547c-0.399,1.253,0.294,2.592,1.547,2.991
				C132.436,443.061,133.775,442.368,134.174,441.115z"/>
			<path style="fill:#FFFFFF;stroke:#263238;stroke-width:0.5;stroke-miterlimit:10;" d="M98.53,413.347
				c0.611-1.921-0.451-3.975-2.372-4.586c-1.922-0.611-3.975,0.451-4.587,2.372c-0.611,1.921,0.451,3.975,2.372,4.586
				C95.865,416.331,97.918,415.269,98.53,413.347z"/>
			<path style="fill:#FFFFFF;stroke:#263238;stroke-width:0.5;stroke-miterlimit:10;" d="M203.384,396.9
				c0.611-1.922-0.451-3.975-2.372-4.586c-1.922-0.611-3.975,0.451-4.586,2.372c-0.611,1.921,0.451,3.975,2.372,4.586
				C200.719,399.884,202.773,398.822,203.384,396.9z"/>
			<path style="fill:#FFFFFF;stroke:#263238;stroke-width:0.5;stroke-miterlimit:10;" d="M166.947,366.915
				c0.611-1.922-0.451-3.975-2.372-4.586c-1.921-0.611-3.975,0.451-4.586,2.372c-0.611,1.922,0.451,3.975,2.372,4.586
				C164.282,369.898,166.335,368.836,166.947,366.915z"/>
			<path style="fill:#FFFFFF;stroke:#263238;stroke-width:0.5;stroke-miterlimit:10;" d="M180.262,445.484
				c0.612-1.922-0.451-3.975-2.372-4.586c-1.922-0.611-3.975,0.451-4.586,2.372c-0.611,1.922,0.451,3.975,2.372,4.586
				C177.597,448.468,179.651,447.406,180.262,445.484z"/>
		</g>
		<g>
			<path style="fill:#FFFFFF;stroke:#263238;stroke-width:0.5;stroke-miterlimit:10;" d="M469.326,212.41
				c0.399-1.253-0.294-2.592-1.547-2.991c-1.253-0.399-2.592,0.294-2.991,1.547c-0.399,1.253,0.294,2.592,1.547,2.991
				C467.588,214.356,468.928,213.663,469.326,212.41z"/>
			<path style="fill:#FFFFFF;stroke:#263238;stroke-width:0.5;stroke-miterlimit:10;" d="M455.609,167.563
				c0.399-1.253-0.294-2.592-1.547-2.991c-1.253-0.399-2.592,0.294-2.991,1.547c-0.399,1.253,0.294,2.592,1.547,2.991
				C453.871,169.509,455.21,168.817,455.609,167.563z"/>
			<path style="fill:#FFFFFF;stroke:#263238;stroke-width:0.5;stroke-miterlimit:10;" d="M473.268,160.755
				c0.611-1.922-0.451-3.975-2.372-4.586c-1.922-0.611-3.975,0.451-4.586,2.372c-0.611,1.922,0.451,3.975,2.372,4.587
				S472.657,162.676,473.268,160.755z"/>
		</g>
	</g>
</g>
</svg>
